<?xml version="1.0" standalone="no"?>
<!DOCTYPE svg PUBLIC "-//W3C//DTD SVG 1.1//EN" "http://www.w3.org/Graphics/SVG/1.1/DTD/svg11.dtd" >
<svg xmlns="http://www.w3.org/2000/svg">
<metadata></metadata>
<defs>
<font id="trackitalic" horiz-adv-x="522" >
<font-face units-per-em="2048" ascent="1536" descent="-512" />
<missing-glyph horiz-adv-x="577" />
<glyph horiz-adv-x="2048" />
<glyph horiz-adv-x="2048" />
<glyph unicode="&#xd;" horiz-adv-x="577" />
<glyph unicode=" "  horiz-adv-x="577" />
<glyph unicode="&#x09;" horiz-adv-x="577" />
<glyph unicode="&#xa0;" horiz-adv-x="577" />
<glyph unicode="!" d="M-8 66l22 151q4 25 24.5 45.5t49.5 20.5h139q29 0 45.5 -20.5t12.5 -45.5l-27 -151q-4 -25 -27.5 -45.5t-52.5 -20.5h-139q-29 0 -40 20.5t-7 45.5zM61 498l191 1075q4 25 25.5 45t50.5 20h139q29 0 44 -20.5t11 -44.5l-188 -1075q-4 -25 -27.5 -45.5t-52.5 -20.5h-139 q-29 0 -43.5 20.5t-10.5 45.5z" />
<glyph unicode="&#x22;" horiz-adv-x="862" d="M61 1130l80 451q4 29 29 47.5t49 18.5h125q25 0 41 -18.5t12 -47.5l-80 -451q-4 -29 -28.5 -48t-48.5 -19h-125q-25 0 -41.5 19.5t-12.5 47.5zM463 1130l80 451q4 29 28.5 47.5t49.5 18.5h124q25 0 41.5 -18.5t12.5 -47.5l-80 -451q-4 -29 -28.5 -48t-49.5 -19h-125 q-25 0 -41 19.5t-12 47.5z" />
<glyph unicode="#" horiz-adv-x="1458" d="M-69 20.5q-9 20.5 1 45.5l144 350h-80q-29 0 -44 20.5t-11 44.5l24 129q4 25 22.5 45.5t47.5 20.5h151l99 231h-127q-29 0 -43.5 20.5t-10.5 45.5l23 129q4 25 25.5 45t50.5 20h192l176 406q10 25 38 45t57 20h139q29 0 39 -20.5t0 -44.5l-176 -406h317l176 406 q10 25 38 45t56 20h140q29 0 39 -20.5t0 -44.5l-177 -406h125q29 0 45.5 -20.5t12.5 -44.5l-23 -129q-4 -25 -27.5 -45.5t-52.5 -20.5h-190l-98 -231h165q29 0 45.5 -20.5t12.5 -45.5l-25 -129q-4 -25 -26.5 -45t-51.5 -20h-231l-150 -350q-10 -25 -39.5 -45.5t-58.5 -20.5 h-139q-29 0 -37 20.5t2 45.5l150 350h-318l-149 -350q-10 -25 -39 -45.5t-58 -20.5h-133q-29 0 -38 20.5zM459 676h317l98 231h-317z" />
<glyph unicode="$" horiz-adv-x="1368" d="M23 346q-2 61 3 94t11 68q6 31 19.5 55.5t60.5 24.5h139q49 0 53 -49q4 -20 1 -30.5t-7 -35.5q-2 -8 -2 -21.5t-4 -33.5q4 -63 41 -109.5t102 -60.5l80 459q-82 23 -157.5 52t-130 74.5t-81 110t-10.5 154.5l6 28q4 33 11.5 67t25.5 75l-4 -2q29 80 82 147.5t121 118.5 t146.5 83t158.5 40l19 108q4 25 26.5 45.5t50.5 20.5h140q29 0 44 -20.5t11 -45.5l-18 -108q72 -10 133 -40t110 -75q59 -55 82 -154.5t-4 -218.5q-6 -31 -19.5 -55.5t-60.5 -24.5h-135q-29 0 -43 20.5t-10 45.5q14 106 -11.5 160.5t-89.5 70.5l-82 -462q53 -16 94.5 -27.5 t69.5 -22.5q39 -14 71 -31.5t60 -37.5q55 -43 82 -117t9 -178q-10 -59 -32 -118.5t-52.5 -114t-67.5 -100.5t-76 -77q-70 -53 -150.5 -79.5t-172.5 -34.5l-17 -99q-4 -25 -27.5 -45t-52.5 -20h-139q-29 0 -43 20.5t-10 44.5l16 101q-117 10 -205 69.5t-131 157.5 q-31 63 -34 133zM418.5 1146.5q-7.5 -40.5 23.5 -79.5q35 -41 80 -53l51 -15l68 387q-66 -16 -123 -62t-82 -112v2q-10 -27 -17.5 -67.5zM713 250q72 16 129 60t82 110q4 10 6 20.5t4 20.5q4 20 8.5 58t-18.5 61q-20 20 -57.5 34.5t-84.5 28.5z" />
<glyph unicode="%" horiz-adv-x="1808" d="M80 18.5q-4 18.5 18 42.5l1375 1721q23 25 34 35t39 10h160q29 0 33 -20.5t-19 -45.5l-1374 -1720q-20 -25 -32.5 -33t-41.5 -8h-159q-29 0 -33 18.5zM98 1122l74 400q12 63 45 119.5t81 97.5t106.5 64.5t119.5 23.5h33q63 0 117.5 -25.5t90.5 -68.5t51 -101.5t3 -124.5 l-65 -370q-12 -66 -48 -124.5t-87.5 -101.5t-114 -68.5t-125.5 -25.5h-33q-61 0 -111.5 23.5t-84 64.5t-48 96.5t-4.5 120.5zM289 1122q-8 -47 19.5 -78.5t72.5 -31.5h33q53 0 96 36.5t53 88.5l66 370q10 53 -22 89t-85 36h-33q-45 0 -82.5 -31.5t-46.5 -78.5zM973 305 l71 400q10 63 44 119.5t82.5 97.5t107.5 64.5t121 23.5h33q63 0 116.5 -26t89 -69t51 -101t3.5 -124l-66 -371q-12 -66 -47 -124t-86 -101t-113.5 -68.5t-126.5 -25.5h-32q-61 0 -112.5 23.5t-85.5 64.5t-48 96.5t-2 120.5zM1163 305q-8 -47 19.5 -78.5t72.5 -31.5h33 q53 0 94 35.5t52 88.5l65 371q10 51 -19.5 88t-82.5 37h-33q-45 0 -83 -31.5t-46 -78.5z" />
<glyph unicode="&#x26;" horiz-adv-x="1499" d="M2 559q23 143 87.5 255t201.5 200q-35 45 -42 96t-3 98q23 211 159 321.5t351 110.5h108q84 0 145.5 -35.5t100.5 -95t52.5 -135.5t-1.5 -153l-22 -125q-8 -51 -56 -52h-161q-25 0 -31 20.5t-3 51.5t9 69t6 72.5t-10 62.5t-43 38q-23 8 -42.5 9t-41.5 1q-111 0 -166 -39 t-72 -143q-10 -55 27 -107q31 -47 83 -114.5t109.5 -136t108.5 -128t76 -90.5l4 17q4 27 16.5 46t42.5 19h164q25 0 33 -20.5t6 -49t-9 -58t-11 -48.5q-8 -43 -21.5 -85t-36.5 -81q12 -16 47 -61t71 -94.5t62.5 -92.5t24.5 -57q-4 -20 -21.5 -32.5t-37.5 -12.5h-211 q-12 0 -29.5 15.5t-34 36t-31 42t-20.5 31.5q-80 -59 -171 -92t-183 -33h-158q-119 0 -207 44t-143 120t-74.5 178t-1.5 217zM256 461q6 -58 32.5 -101t73 -68.5t113.5 -25.5h158q86 0 164 56l-389 489q-63 -39 -99.5 -102.5t-46.5 -128.5q-12 -61 -6 -119z" />
<glyph unicode="'" horiz-adv-x="462" d="M61 1130l80 451q4 29 29 47.5t49 18.5h125q25 0 41 -18.5t12 -47.5l-80 -451q-4 -29 -28.5 -48t-48.5 -19h-125q-25 0 -41.5 19.5t-12.5 47.5z" />
<glyph unicode="(" horiz-adv-x="755" d="M-47 -14q-16 82 0 170l182 1061l29 159q14 90 59 173t111.5 149.5t149.5 111.5t173 60q37 6 69 7t67 1h22q29 0 46.5 -17.5t12.5 -45.5l-24 -140q-6 -29 -29.5 -48t-52.5 -19h-23q-35 0 -64.5 -2t-64.5 -17q-68 -27 -119 -86t-63 -127l-215 -1220q-12 -68 18.5 -125.5 t90.5 -83.5q29 -14 57.5 -16.5t63.5 -2.5h22q29 0 46.5 -19.5t10.5 -47.5l-24 -140q-4 -29 -27.5 -46t-52.5 -17h-23q-35 0 -65.5 1t-65.5 7q-86 14 -151.5 59.5t-107.5 112t-58 148.5z" />
<glyph unicode=")" horiz-adv-x="755" d="M-125 -279l25 140q6 29 29.5 48t52.5 19h18q35 0 61.5 2t65.5 17q66 27 118 84t64 125l215 1220q12 68 -19.5 127.5t-88.5 85.5q-33 14 -59.5 16.5t-61.5 2.5h-21q-29 0 -46 19.5t-11 47.5l25 140q4 29 27.5 46t52.5 17h22q35 0 64.5 -1t64.5 -7q86 -14 152.5 -59.5 t109.5 -112t59.5 -149.5t2.5 -173l-215 -1220q-16 -88 -61.5 -170t-112 -148.5t-149.5 -111.5t-173 -60q-37 -6 -65.5 -7t-63.5 -1h-23q-29 0 -46 17.5t-13 45.5z" />
<glyph unicode="*" horiz-adv-x="854" d="M23 1154q0 22 34 38l133 63l-106 74q-16 12 -17 33.5t13 44.5l88 96q39 39 80 13l82 -58q4 29 10 59.5t12 59.5q8 57 66 57h102q23 0 35 -15t8 -38l-18 -123l102 58q47 29 70 -13l57 -96q8 -20 2 -40.5t-35 -37.5l-131 -76q27 -16 51.5 -29.5t53.5 -29.5t27.5 -37.5 t-21.5 -44.5l-92 -104q-39 -43 -78 -17l-80 51q-4 -25 -10 -49t-10 -51q-8 -57 -64 -57h-102q-53 0 -45 57l18 102l-111 -55q-49 -29 -71 21l-45 104q-8 18 -8 40z" />
<glyph unicode="+" horiz-adv-x="1007" d="M88 715l23 129q4 25 26.5 45t50.5 20h203l35 201q4 29 28.5 48.5t49.5 19.5h129q25 0 41 -19.5t12 -48.5l-35 -201h199q29 0 44 -20.5t11 -44.5l-22 -129q-4 -25 -28 -45.5t-52 -20.5h-199l-35 -200q-4 -29 -28.5 -47.5t-48.5 -18.5h-130q-25 0 -41 18.5t-12 47.5l35 200 h-203q-29 0 -43 20.5t-10 45.5z" />
<glyph unicode="," d="M98 66l27 151q4 25 26.5 45.5t51.5 20.5h159q29 0 44.5 -20.5t11.5 -45.5l-27 -151q4 -8 -10 -27l-105 -174q-10 -20 -23 -25.5t-32 -5.5h-86q-29 0 -27.5 13.5t5.5 23.5l55 129h-16q-29 0 -43.5 20.5t-10.5 45.5z" />
<glyph unicode="-" horiz-adv-x="1007" d="M76 715l22 129q4 25 26.5 45t51.5 20h662q29 0 44 -20.5t11 -44.5l-23 -129q-4 -25 -27.5 -45.5t-51.5 -20.5h-662q-29 0 -43 20.5t-10 45.5z" />
<glyph unicode="." d="M104 66l27 151q4 25 26.5 45.5t51.5 20.5h139q29 0 44.5 -20.5t10.5 -45.5l-26 -151q-4 -25 -27.5 -45.5t-52.5 -20.5h-139q-29 0 -43.5 20.5t-10.5 45.5z" />
<glyph unicode="/" horiz-adv-x="1116" d="M-86 20.5q-6 20.5 8 45.5l996 1720q25 45 79 45h160q29 0 37 -20.5t-6 -45.5l-1022 -1720q-31 -45 -84 -45h-133q-29 0 -35 20.5z" />
<glyph unicode="0" horiz-adv-x="1335" d="M59 473l123 694q18 104 73.5 194.5t135.5 157t177.5 104.5t199.5 38h59q106 0 195.5 -41t150 -111.5t85 -166t6.5 -201.5l-113 -641q-18 -109 -77.5 -202t-144.5 -164t-188.5 -110.5t-210.5 -39.5h-59q-102 0 -185 36.5t-140.5 103t-81 156t-5.5 193.5zM328 473 q-8 -47 3 -88t37.5 -71.5t64.5 -48t85 -17.5h60q53 0 103 19.5t92 54t69.5 79.5t38.5 99l112 641q8 51 -3 97t-40.5 81t-72.5 54.5t-97 19.5h-59q-47 0 -91 -17.5t-81 -48.5t-63.5 -72t-34.5 -88z" />
<glyph unicode="1" horiz-adv-x="1011" d="M-63 82l18 100q6 41 25.5 60.5t62.5 19.5h221l195 1110h-215q-41 0 -48.5 21.5t-0.5 60.5l18 105q8 41 26.5 60t65.5 19h408q47 0 52 -24.5t-1 -54.5l-227 -1297h233q47 0 59.5 -19.5t6.5 -60.5l-19 -100q-6 -39 -22.5 -60.5t-57.5 -21.5h-749q-41 0 -49.5 21.5 t-1.5 60.5z" />
<glyph unicode="2" horiz-adv-x="1261" d="M-53 70l63 376q6 41 14.5 71t26 55.5t47 49t78.5 52.5l649 442q29 20 47.5 33.5t28.5 21.5q78 72 78 146q-4 74 -105 74h-219q-49 0 -83.5 -5.5t-61.5 -19.5t-45.5 -38.5t-32.5 -61.5q-4 -20 -8 -33.5t-6 -22.5v-8q-8 -39 -23.5 -55.5t-56.5 -16.5h-137q-43 0 -52.5 16.5 t-1.5 55.5l7 37q6 35 27.5 102.5t60.5 126.5q41 59 137 125q94 63 323 64h226q117 0 190.5 -38t109.5 -99.5t35 -139t-32 -157.5t-89.5 -155t-140.5 -130l-720 -481l-31 -176h751q29 0 45.5 -22.5t12.5 -49.5l-25 -139q-4 -25 -28.5 -47.5t-53.5 -22.5h-954q-29 0 -42 22.5 t-9 47.5z" />
<glyph unicode="3" horiz-adv-x="1294" d="M0 315.5q0 30.5 2 57t6 45.5l6 37q8 39 20.5 55t55.5 16h137q41 0 52.5 -16t3.5 -55l-2 -9q0 -8 -1 -21t-4 -34q2 -76 41 -100.5t138 -24.5h219q100 0 149 84q49 86 -18 185q-6 10 -19.5 25t-35.5 36l-203 184q-29 27 -38 51.5t-4 49t21.5 50t40.5 52.5l322 379h-586 q-53 0 -65.5 14.5t-1.5 67.5l22 115q2 14 6 29.5t12.5 25.5t22.5 17t41 7h887q29 0 43 -20.5t10 -44.5l-23 -129q-2 -10 -6 -22.5t-18 -22.5l-410 -469l160 -164q76 -59 111.5 -139t35.5 -165t-33.5 -168t-97 -148.5t-156.5 -105.5t-210 -40h-225q-227 0 -302 61 q-74 63 -92 125q-8 31 -11 65t-3 64.5z" />
<glyph unicode="4" horiz-adv-x="1337" d="M-23 467l17 88q6 31 20 51l932 1012l6 4q27 16 64 16h141q47 0 52 -24.5t-1 -54.5l-159 -910h127q53 0 64 -14t1 -68l-18 -100q-4 -31 -19.5 -56.5t-62.5 -25.5h-140l-53 -305q-10 -47 -31.5 -63.5t-62.5 -16.5h-111q-39 0 -58 12.5t-11 53.5l55 319h-704 q-43 0 -47.5 25.5t-0.5 56.5zM365 649h411l98 561z" />
<glyph unicode="5" horiz-adv-x="1292" d="M30 317.5q1 30.5 3 57t6 45.5l6 37q8 39 21.5 55t56.5 16h137q41 0 52.5 -16t2.5 -55v-8q-4 -16 -6 -56q2 -76 41 -100.5t137 -24.5h195q100 0 129 74q4 4 4 8t2 10l33 183q12 74 6 114.5t-26.5 60t-53.5 25t-71 7.5q-68 2 -197 2t-328 -4q-29 0 -44 22.5t-5 48.5 l127 748q4 25 25.5 47t50.5 22h858q29 0 45 -22.5t12 -46.5l-24 -140q-4 -27 -29 -49t-53 -22h-651l-60 -338h363q18 0 43.5 -2t56.5 -8.5t61.5 -15.5t57.5 -23q53 -29 104 -115q51 -80 10 -311l-34 -189q-12 -70 -47 -133t-91.5 -112.5t-135.5 -78t-179 -28.5h-201 q-227 0 -301 61q-76 68 -94 125q-10 31 -13 65t-2 64.5z" />
<glyph unicode="6" horiz-adv-x="1318" d="M22.5 227.5q-8.5 69.5 6.5 153.5l151 862q14 76 51 146.5t94.5 126t131 88t164.5 32.5h229q227 0 309 -65q84 -63 103 -129q18 -59 16 -127t-8 -103l-6 -36q-6 -39 -20.5 -55.5t-57.5 -16.5h-137q-41 0 -51.5 16.5t-4.5 55.5l2 8q2 8 2 21.5t4 33.5q-4 76 -52 103.5 t-146 27.5h-223q-68 -6 -93.5 -42t-35.5 -93l-23 -133l463 -297q27 -16 61.5 -42t81.5 -61q59 -45 88 -114.5t29 -147.5t-29.5 -156.5t-87 -141t-142.5 -102.5t-196 -40h-364q-100 0 -166 27.5t-100.5 79t-43 121zM301 381q-6 -35 6 -74q16 -35 88 -35h336q61 0 103 66 q41 72 -11 133q-8 14 -28 31q-10 10 -40 31.5t-77 56.5q-94 68 -163 116t-140 97z" />
<glyph unicode="7" horiz-adv-x="1259" d="M31 29.5q-8 29.5 32 81.5l863 1108q18 25 28.5 50t9.5 45.5t-16.5 34t-46.5 13.5h-371q-74 0 -100 -37q-25 -37 -31 -72l-10 -57q-4 -25 -27.5 -45.5t-52.5 -20.5h-139q-29 0 -42 20.5t-9 45.5l10 57q14 84 47 154t85 121t128 78.5t176 27.5h377q154 0 232.5 -49t99 -128 t-14 -177t-108.5 -195l-776 -1015q-27 -35 -53.5 -52.5t-65.5 -17.5h-176q-41 0 -49 29.5z" />
<glyph unicode="8" horiz-adv-x="1294" d="M-28 279.5q1 78.5 30 158.5t85 154t134 127l191 127l-107 92q-78 68 -110.5 160t-22.5 186t65.5 179.5t153.5 138.5q66 35 131.5 45t110.5 10h295q117 0 190.5 -39t109.5 -101.5t36 -140.5t-31 -157.5t-90.5 -153.5t-141.5 -127l-149 -96l149 -123q63 -53 97.5 -127 t36.5 -154t-26 -157.5t-85 -140t-145 -101.5t-205 -39h-379q-113 0 -183.5 39t-105.5 100.5t-34 140zM244 336q2 -76 104 -76h367q102 0 129 76q31 80 -25 149l-53 70l-160 147l-207 -147q-29 -25 -48 -42.5t-29 -27.5q-78 -70 -78 -149zM452 1244q5 -40 35 -73l56 -59 l123 -111l159 111l76 59q43 33 60.5 71t17.5 79q-4 80 -102 80h-259q-70 0 -102.5 -16.5t-52.5 -57.5q-16 -43 -11 -83z" />
<glyph unicode="9" horiz-adv-x="1325" d="M21.5 323.5q1.5 30.5 3.5 57.5t6 45l6 37q6 39 20.5 55.5t57.5 16.5h137q41 0 51 -16.5t4 -55.5l-2 -8q-2 -8 -2 -21.5t-4 -34.5q4 -76 52 -103.5t147 -27.5h223q68 6 93.5 42t35.5 93l22 134l-462 297q-27 16 -62 41.5t-82 60.5q-57 45 -83.5 114.5t-26.5 147.5 t28.5 157t85 141.5t140.5 102t194 39.5h365q100 0 165.5 -27.5t100.5 -78.5t43 -121t-6 -154l-152 -862q-14 -76 -51 -146.5t-94 -125.5t-132 -88t-163 -33h-229q-227 0 -310 66q-41 35 -68.5 66.5t-35.5 60.5q-10 31 -13.5 64.5t-2 64zM465 1298q-41 -66 12 -131 q4 -6 11.5 -14t17.5 -18t38.5 -31t76.5 -55l305 -213l73 421q6 39 -8 72q-10 37 -86 37h-336q-66 0 -104 -68z" />
<glyph unicode=":" d="M39 66l27 151q4 25 26.5 45.5t50.5 20.5h140q29 0 44 -20.5t11 -45.5l-27 -151q-4 -25 -26.5 -45.5t-51.5 -20.5h-139q-29 0 -44 20.5t-11 45.5zM170 799l27 151q4 25 25.5 45.5t49.5 20.5h140q29 0 45 -20.5t12 -45.5l-27 -151q-4 -25 -27.5 -45.5t-52.5 -20.5h-139 q-29 0 -43 20.5t-10 45.5z" />
<glyph unicode=";" d="M43 66l27 151q4 25 25.5 45.5t49.5 20.5h160q29 0 45.5 -20.5t11.5 -45.5l-26 -151q-2 -10 -12 -27l-105 -174q-10 -20 -22.5 -25.5t-30.5 -5.5h-86q-29 0 -28 13.5t5 23.5l56 129h-17q-29 0 -43 20.5t-10 45.5zM184 799l27 151q4 25 25.5 45.5t50.5 20.5h139 q29 0 45 -20.5t12 -45.5l-26 -151q-4 -25 -27.5 -45.5t-52.5 -20.5h-139q-29 0 -43.5 20.5t-10.5 45.5z" />
<glyph unicode="&#x3c;" horiz-adv-x="1007" d="M150 733q2 10 5 19.5t20.5 26t52 46t98 83t161 135t238.5 202.5q20 16 43 17q27 0 39 -17l88 -104q12 -23 8 -41q-4 -25 -22 -41l-383 -326l252 -307q12 -16 10 -41q-6 -25 -25 -41l-123 -104q-20 -16 -43 -17q-27 0 -39 17q-141 172 -220 263t-115.5 136t-43 60.5 t-1.5 33.5z" />
<glyph unicode="=" horiz-adv-x="1007" d="M49 487l23 129q4 25 26.5 45.5t51.5 20.5h661q29 0 44 -20.5t11 -45.5l-22 -129q-4 -25 -26.5 -45t-51.5 -20h-662q-29 0 -44 20.5t-11 44.5zM127 920l23 129q4 25 25.5 45t49.5 20h662q29 0 45 -20.5t12 -44.5l-22 -129q-4 -25 -28 -45.5t-52 -20.5h-662q-29 0 -43 20.5 t-10 45.5z" />
<glyph unicode="&#x3e;" horiz-adv-x="1007" d="M106 385q4 25 23 41l363 307l-269 326q-12 16 -10 41q6 18 25 41l124 104q20 16 44 17q26 -1 38 -17q98 -121 166 -202.5t113 -135t69.5 -83t36 -46t12.5 -26t-1 -19.5q-2 -12 -7.5 -22.5t-21.5 -26.5t-50 -45t-95.5 -79t-154.5 -128t-228 -192q-20 -16 -43 -17 q-27 0 -39 17l-86 104q-14 16 -9 41z" />
<glyph unicode="?" horiz-adv-x="1353" d="M121 1140.5q-8 16.5 0 55.5l6 37q6 35 26.5 102.5t61.5 126.5q18 29 56 61.5t91 67.5q106 66 334 66h334q111 0 181.5 -39t106.5 -101.5t37 -141.5t-25.5 -155.5t-80 -146t-129.5 -115.5q-59 -35 -102 -60.5t-76 -41.5l-164 -82l-53 -299q-4 -31 -23.5 -48t-64.5 -17 h-137q-29 0 -40 20.5t-7 44.5l49 281q8 41 16 71.5t24.5 56t47.5 49t82 50.5l256 133q29 20 47 33.5t29 21.5q61 57 49 136q-12 78 -76 84h-328q-98 0 -156.5 -28t-86.5 -103q-6 -20 -9.5 -34l-5.5 -22l-2 -8q-6 -39 -22.5 -55.5t-57.5 -16.5h-137q-43 0 -51 16.5zM381 66 l27 151q4 25 26.5 45.5t50.5 20.5h140q29 0 44 -20.5t11 -45.5l-27 -151q-4 -25 -27.5 -45.5t-52.5 -20.5h-139q-29 0 -43 20.5t-10 45.5z" />
<glyph unicode="A" horiz-adv-x="1411" d="M-109 66q0 2 31 62t82 159.5t116.5 227.5t135.5 264t139.5 270.5t128 245t99.5 188.5t55 102q16 23 30.5 38t45.5 15h180q31 0 39 -16t14 -37l262 -1495q-2 -10 -2 -14v-10q-12 -66 -78 -66h-147q-33 0 -41 15.5t-14 37.5l-93 539l-542 -223l-168 -316q-16 -25 -28.5 -39 t-49.5 -14h-139q-25 0 -43 18q-14 14 -14 34q0 7 1 14zM520 739l303 125q-10 49 -15 81t-9 48q-2 16 -4 31.5t-4 32.5q-6 31 -10.5 65.5t-12.5 81.5z" />
<glyph unicode="B" horiz-adv-x="1441" d="M-10 66l260 1507q6 29 27.5 47t50.5 18h671q72 0 130.5 -27.5t96.5 -74.5q38 -46 53 -110q8 -35 8 -74q0 -30 -5 -62q-18 -104 -68 -170q-47 -66 -186 -133q162 -31 222 -119q40 -59 39 -154q0 -46 -9 -100l-31 -170q-16 -92 -65 -173t-120 -141t-158 -95t-179 -35h-688 q-29 0 -41 20q-9 15 -9 34q0 6 1 12zM291 272h483q74 0 133 52l25 24q29 29 38 59.5t9 36.5q4 16 7 30.5t7 31.5q2 14 5 28.5t6 28.5q6 33 6 60q0 17 -2 32q-6 37 -22.5 60.5t-41 33t-53.5 9.5h-262l-277 -137zM406 915q43 20 99 48t116.5 59t120 62.5t109.5 60.5t86 52.5 t48 39.5q16 16 23 53q2 9 2 17q0 21 -12 37q-16 22 -46 22h-467z" />
<glyph unicode="C" horiz-adv-x="1546" d="M80 641l63 356q25 137 98.5 259t179 212.5t237 143.5t268.5 53q125 0 227 -41t176 -114.5t115 -175t45 -220.5q0 -2 -3 -10t-3 -10q-10 -20 -27.5 -40t-46.5 -20h-137q-27 0 -38 12.5t-17 32.5q-10 47 -17.5 86t-28.5 74q-41 76 -117.5 118t-174.5 42q-82 0 -160 -32 t-142.5 -86t-108.5 -128t-58 -156l-64 -356q-6 -36 -6 -70q0 -45 10 -87q18 -72 62.5 -126.5t112 -86t149.5 -31.5q98 0 190 43t166 120q37 41 59.5 83t45.5 94l-5 -5q20 55 74 56h137q29 0 43.5 -20.5t10.5 -45.5q-4 -31 -17.5 -64.5t-29.5 -62.5q-53 -98 -132 -182 t-175.5 -146.5t-202 -97.5t-209.5 -35q-137 0 -250 52.5t-187.5 142.5t-105.5 211q-17 67 -17 139q0 58 11 119z" />
<glyph unicode="D" horiz-adv-x="1527" d="M-12 66l260 1507q4 25 27.5 45t52.5 20h579q135 0 245 -51t182 -139q74 -88 104 -207q17 -67 16 -138q0 -56 -10 -114l-60 -340q-25 -133 -96 -251.5t-175.5 -207t-231.5 -139.5t-263 -51h-579q-29 0 -43 18q-10 13 -10 32q0 7 2 16zM291 272h375q78 0 151.5 30t135 82 t103.5 119.5t56 145.5l59 340q6 33 6 65q0 42 -10 80q-18 68 -60 120.5t-105.5 82t-141.5 29.5h-375z" />
<glyph unicode="E" horiz-adv-x="1359" d="M-10 66l260 1507q6 29 28.5 47t51.5 18h989q51 0 55 -24q2 -10 2 -21q0 -16 -4 -34l-20 -113q-4 -29 -9.5 -44.5t-15.5 -23.5t-26.5 -10t-43.5 -2h-768l-65 -362h682q29 0 44 -19.5t11 -48.5l-24 -139q-6 -29 -28 -48.5t-50 -19.5h-682l-82 -457h795q53 0 66 -12 q7 -7 7 -27q0 -16 -4 -40l-20 -111q-6 -31 -18.5 -56.5t-63.5 -25.5h-1016q-29 0 -43 18q-10 13 -10 32q0 7 2 16z" />
<glyph unicode="F" horiz-adv-x="1269" d="M-10 66l260 1507q6 29 28.5 47t47.5 18h950q47 0 53 -24q3 -12 3 -26t-3 -29l-20 -113q-4 -29 -9.5 -44.5t-14.5 -23.5t-26.5 -10t-44.5 -2h-727l-69 -385h684q57 0 57 -48q0 -8 -2 -18l-24 -141q-12 -65 -76 -65h-2h-684l-111 -627q-6 -31 -19 -56.5t-63 -25.5h-139 q-25 0 -40 18q-11 13 -11 32q0 8 2 16z" />
<glyph unicode="G" horiz-adv-x="1564" d="M84 668l59 331q25 137 98.5 259t180 212.5t238 143.5t270.5 53q106 0 195 -32.5t160 -91t120 -140.5t74 -182q2 -9 2 -17q0 -22 -17 -40q-22 -25 -63 -25h-148q-39 0 -53 39l2 -2q-39 104 -117.5 164.5t-201.5 60.5q-84 0 -162 -32t-142.5 -86t-109.5 -128t-59 -156 l-60 -331q-9 -52 -9 -97t9 -82q19 -73 66 -129q47 -53 112.5 -84.5t151.5 -31.5q119 0 230.5 54t185.5 165q14 23 27.5 53.5t23.5 65.5q10 39 17 58t7 22h-352q-27 0 -43 20t-12 45l22 127q12 66 78 66h545q53 0 53 -47q0 -8 -2 -19q-4 -23 -5 -39t-5 -37q-4 -23 -6 -43 t-6 -41q-4 -10 -10.5 -36.5t-18.5 -69.5q-10 -43 -22.5 -79t-24.5 -65q-53 -115 -158 -225q-232 -238 -539 -238q-16 0 -32 1q-139 4 -252 54t-187.5 139t-105.5 214q-17 67 -17 142q0 65 13 137z" />
<glyph unicode="H" horiz-adv-x="1435" d="M-8 66l260 1507q4 25 25.5 45t50.5 20h139q51 0 55 -24.5t-2 -54.5l-123 -703l686 274l76 429q6 31 20.5 55t61.5 24h137q30 0 46 -20q13 -16 13 -36q0 -5 -1 -9l-265 -1507q-4 -25 -28.5 -45.5t-52.5 -20.5h-138q-47 0 -53 24.5t0 55.5l131 749l-686 -270l-84 -479 q-6 -31 -18 -55.5t-64 -24.5h-139q-29 0 -40 20q-8 15 -8 33q0 6 1 13z" />
<glyph unicode="I" d="M-8 66l260 1507q4 25 25.5 45t50.5 20h139q29 0 44 -20q12 -16 12 -35q0 -5 -1 -10l-264 -1507q-4 -25 -27.5 -45.5t-52.5 -20.5h-139q-29 0 -40 20q-8 15 -8 33q0 6 1 13z" />
<glyph unicode="J" horiz-adv-x="1394" d="M6 410q0 35 4 66.5t10 66.5l5 22q4 29 25.5 49.5t49.5 20.5h140q29 0 44 -20.5t11 -49.5l-4 -22q-6 -35 -9 -63.5t5 -61.5q16 -63 67.5 -104.5t118.5 -41.5h160q55 0 106.5 21.5t93 57.5t70.5 84t39 104l172 977q2 18 6 39.5t13.5 40t26 30.5t44.5 12h139q29 0 43 -20 q12 -17 12 -35q0 -5 -1 -10l-183 -1034q-18 -111 -77.5 -209.5t-145.5 -171t-190.5 -115.5t-214.5 -43h-160q-90 0 -167 30.5t-133 86t-88 130.5t-32 163z" />
<glyph unicode="K" horiz-adv-x="1431" d="M-12 66l262 1507q12 65 76 65h2h137q57 0 57 -46q0 -9 -2 -19l-100 -572l805 641l4 -6q2 2 22 2h191q29 0 46 -18q13 -13 13 -33q0 -7 -2 -14q-2 -27 -33 -49l-26 -27l-664 -534l459 -836l12 -23q16 -29 6 -52t-36 -40q-23 -12 -41 -12h-172q-18 0 -32 7t-24 30l2 -4 l-409 745q-51 -41 -92 -74.5t-95 -74.5l-100 -563q-10 -66 -78 -66h-137q-52 0 -52 49q0 8 1 17z" />
<glyph unicode="L" horiz-adv-x="1234" d="M-8 66l260 1507q12 65 74 65h2h141q47 0 52 -24.5t-1 -54.5l-227 -1287h680q55 0 67 -12q6 -6 5 -23q0 -17 -5 -44l-20 -111q-6 -31 -19.5 -56.5t-60.5 -25.5h-901q-49 0 -49 46q0 9 2 20z" />
<glyph unicode="M" horiz-adv-x="1847" d="M-10 55l260 1499q6 31 21.5 48.5t36 25.5t41 9t32.5 1h74q29 0 47 -6t33 -30l405 -656l641 662q30 30 83 30h3h80q14 0 33.5 -1t36 -8t25.5 -25q5 -11 5 -28q0 -11 -2 -24l-264 -1493q-8 -45 -30.5 -52t-51.5 -7h-121q-54 0 -66 14q-7 8 -6 27q0 16 5 41l190 1075 q-131 -135 -257 -266t-261 -262l2 4q-16 -23 -29.5 -27t-35.5 -4h-80q-29 0 -38 6t-22 27l-327 522l-191 -1075q-4 -27 -10 -43t-16.5 -24.5t-26.5 -11.5t-43 -3h-121h-11q-21 0 -35 6q-12 5 -12 26q0 10 3 23z" />
<glyph unicode="N" horiz-adv-x="1499" d="M-8 66l260 1507q4 25 25.5 45t50.5 20h151q37 0 49 -32v2l516 -1057l181 1022q4 25 27.5 45t52.5 20h139q29 0 44 -20q12 -16 12 -35q0 -5 -1 -10l-264 -1507q-4 -25 -27.5 -45.5t-52.5 -20.5h-139q-39 0 -51 31q-68 137 -132.5 267t-129 258t-130 259t-135.5 270 l-178 -1019q-4 -25 -27.5 -45.5t-52.5 -20.5h-141q-29 0 -40 20q-8 15 -8 33q0 6 1 13z" />
<glyph unicode="O" horiz-adv-x="1628" d="M63 662l56 321q27 141 105.5 265t192 215t254 144.5t287.5 53.5t268.5 -53.5t201 -144.5t113.5 -215q20 -71 20 -149q0 -57 -11 -116l-55 -321q-25 -141 -103.5 -265.5t-192.5 -216.5t-253 -145t-287 -53q-147 0 -268 53t-201.5 145t-115.5 216q-21 74 -21 153 q0 55 10 113zM340 662q-7 -37 -7 -72q1 -47 13 -90q22 -76 71.5 -133.5t124 -90t165.5 -32.5q90 0 175 32.5t154.5 90t117.5 133t65 162.5l55 321q6 35 6 68q0 49 -12 94q-20 76 -70.5 133t-124.5 90t-164 33t-176 -34t-155.5 -90t-118.5 -132t-64 -162z" />
<glyph unicode="P" horiz-adv-x="1325" d="M-10 66l260 1507q4 25 26.5 45t51.5 20h688q111 0 181.5 -39.5t106 -102t36.5 -141.5v-6q0 -76 -26 -151q-26 -78 -79 -147.5t-129 -114.5q-61 -35 -103 -60.5t-75 -41.5l-590 -297l-80 -457q-6 -31 -19 -55.5t-61 -24.5h-139q-29 0 -41 20q-9 15 -9 34q0 6 1 12z M393 844q86 41 181.5 89t181.5 95q20 10 53 28.5t66.5 39t61.5 40t38 31.5q49 61 49 122v9q-4 68 -70 68h-469z" />
<glyph unicode="Q" horiz-adv-x="1652" d="M61 662l58 323q27 141 105.5 267t192 220.5t253 149.5t286.5 55q145 0 265 -55t201 -149.5t116 -220.5q20 -74 20 -152q0 -56 -10 -115l-57 -323q-16 -94 -60.5 -185.5t-105.5 -169.5l4 -6q4 0 57 -39q46 -36 46 -69v-7q-6 -25 -32 -55.5t-50 -58.5q-39 -51 -78 -58 q-5 -1 -9 -1q-35 0 -89 38l-76 51q-104 -66 -215 -95.5t-228 -29.5q-147 0 -267 53.5t-201 146.5t-115 218q-21 74 -21 153q0 56 10 114zM338 662q-6 -35 -6 -69q0 -46 11 -90q19 -77 66.5 -135.5t118 -94t158.5 -35.5q41 0 89 6t89 28q-4 2 -12 9q-6 4 -15.5 10t-19.5 16 q-32 25 -32 55q0 15 8 31q2 2 2 4q39 39 75 88q12 10 21 23q31 31 63 31q16 0 74 -39l88 -56q78 98 98 218l58 323q6 34 6 66q0 50 -14 97q-21 77 -70 134t-124 91t-163 34q-90 0 -175 -34t-154.5 -91t-118.5 -134t-64 -163z" />
<glyph unicode="R" horiz-adv-x="1431" d="M-10 66l260 1507q4 25 26.5 45t51.5 20h729q70 0 127 -28.5t96 -75.5q38 -46 56 -110q10 -36 10 -76q0 -29 -5 -58q-20 -117 -89.5 -191.5t-168.5 -133.5q16 -86 33 -168t33 -168q27 -135 53.5 -271.5t54.5 -273.5q3 -12 3 -23q0 -23 -16 -39q-23 -22 -64 -22h-156 q-33 0 -43 15.5t-14 35.5l-156 780q-117 -55 -224.5 -108t-228.5 -111l-94 -532q-6 -31 -19 -55.5t-61 -24.5h-145q-29 0 -41 20q-9 15 -9 34q0 6 1 12zM412 920q43 20 103 46.5t126 58.5t130.5 63.5t119.5 61.5t94 55.5t53 41.5v-2q14 16 21 43q1 8 1 16q0 24 -14 40 q-18 22 -53 22h-501z" />
<glyph unicode="S" horiz-adv-x="1368" d="M25 346q-1 18 -1 34q0 39 4 63q5 34 11 69v-4q4 31 17.5 55.5t60.5 24.5h139q49 0 53 -49q4 -20 2 -30.5t-6 -35.5q-4 -16 -6 -55q4 -76 57.5 -125t132.5 -49h156q92 0 171 47t108 129q4 10 6 20.5t6 20.5q4 20 7 58v10q0 31 -17 51q-37 37 -121 57t-191 47 q-94 23 -186 51.5t-161.5 74.5t-106.5 116q-25 47 -25 108q0 30 6 64l6 28q6 33 12.5 67t24.5 75l-2 -2q31 86 89.5 157.5t133 123.5t160.5 82t174 30h156q92 0 171 -32t138 -87q59 -54 82 -154q11 -46 10 -96q0 -59 -14 -123q-6 -31 -18.5 -55.5t-59.5 -24.5h-135 q-29 0 -44 20.5t-11 45.5q5 39 5 71q0 76 -30 114q-43 54 -141 55h-156q-39 0 -78 -13.5t-73.5 -38t-62 -57.5t-42.5 -72v2q-4 -12 -9 -29.5t-7 -38t3 -41t21 -38.5q31 -39 78 -53l226 -66q88 -27 150.5 -44t96.5 -32q39 -14 71 -31.5t60 -37.5q55 -43 85 -122 q19 -49 18 -109q0 -35 -6 -74q-10 -59 -33 -119t-53.5 -114t-67.5 -100t-76 -77q-80 -61 -182 -83.5t-213 -22.5h-156q-135 0 -236.5 62t-148.5 169q-33 66 -32 133z" />
<glyph unicode="T" horiz-adv-x="1310" d="M152 1454l18 105q6 31 19.5 55t60.5 24h1089q47 0 53 -24q3 -13 4 -27q0 -13 -3 -28l-19 -105q-8 -49 -24.5 -64.5t-69.5 -15.5h-393l-228 -1294q-6 -31 -19 -55.5t-60 -24.5h-142q-47 0 -52 24.5t1 55.5l227 1294h-397q-53 0 -63 16q-6 8 -6 26q0 15 4 38z" />
<glyph unicode="U" horiz-adv-x="1433" d="M59 494l193 1079q12 65 74 65h2h137q47 0 52 -24.5t-1 -54.5l-188 -1065q-3 -20 -4 -39q0 -26 7 -49q11 -41 37.5 -72t64.5 -48.5t85 -17.5h158q53 0 103 19.5t92 54.5t70 80t38 98l182 1039q6 31 20.5 55t61.5 24h135q58 0 58 -47q0 -8 -2 -18l-185 -1053 q-18 -109 -77.5 -203t-144.5 -164.5t-188.5 -111.5t-209.5 -41h-158q-102 0 -185 38t-140.5 104.5t-81.5 156.5q-13 51 -13 107q0 42 8 88z" />
<glyph unicode="V" horiz-adv-x="1458" d="M160 1573q12 65 78 65h2h157q31 0 40 -16t16 -37l194 -1194l608 1194l-4 -12q2 4 4 5t2 3q27 57 76 57h162q25 0 41 -20q13 -16 13 -35q0 -5 -1 -10q0 -4 -30.5 -67.5t-83.5 -164.5l-326 -608l-313 -583l-52 -97q-16 -25 -30.5 -39t-44.5 -14h-181q-35 0 -44 15.5 t-13 35.5l-70 408q-47 276 -91 539.5t-107 539.5q-3 8 -3 16z" />
<glyph unicode="W" horiz-adv-x="1976" d="M168 1534v14t2 21q10 51 38 59t58 8h113q23 0 43 -6t24 -45l74 -1091q121 279 236.5 544t234.5 545l-2 -6q18 59 78 59h98q51 0 56 -53l90 -1089l461 1091q16 39 36.5 45t44.5 6h115q12 0 27.5 -2t28 -10t18.5 -22q3 -6 3 -13q0 -10 -5 -22l-12 -33q-68 -184 -146 -371.5 t-161 -376t-165.5 -376t-156.5 -367.5q-10 -18 -20.5 -30.5t-51.5 -12.5h-201q-35 0 -44 13.5t-11 31.5q-14 135 -23.5 273.5t-19.5 273.5l-31 385l-397 -930q-10 -20 -22.5 -33.5t-47.5 -13.5h-202q-39 0 -45.5 12.5t-12.5 36.5z" />
<glyph unicode="X" horiz-adv-x="1372" d="M-96 66q0 8 29.5 49t72.5 100q23 31 78 99.5t147 179.5q180 217 228 270l69 80l-327 692q0 4 -2 16.5t-2 20.5q4 25 27.5 45t51.5 20h158q25 0 35 -12t20 -27v3l242 -543q174 229 280.5 365.5t147.5 185.5q22 28 59 28h3h165q26 0 42 -20q13 -16 13 -36q0 -5 -1 -9 q0 -8 -33 -51q-14 -23 -33.5 -47.5t-44.5 -53.5l-475 -577l352 -746v-24q-4 -31 -23.5 -52.5t-52.5 -21.5h-172q-25 0 -36 12.5t-17 26.5v-2l-260 579l-469 -579l4 6q-25 -43 -69 -43h-152q-29 0 -44 20q-12 16 -12 36q0 5 1 10z" />
<glyph unicode="Y" horiz-adv-x="1425" d="M154 1554.5q0 8.5 4 20.5q8 63 73 63h181q37 0 53 -30l285 -568q205 248 324.5 390.5t162.5 185.5l-4 -4q24 26 57 26h2h185q55 0 55 -45q0 -9 -2 -20q-4 -16 -13.5 -30.5t-19.5 -24.5q-4 -4 -4 -5l-2 -2l-660 -751l-118 -680q-6 -31 -18.5 -55.5t-63.5 -24.5h-139 q-47 0 -52.5 24.5t0.5 55.5l121 684l-403 772q-4 10 -4 18.5z" />
<glyph unicode="Z" horiz-adv-x="1339" d="M-90 26q-3 13 -3 26.5t3 29.5l16 88q4 16 10.5 28.5t16.5 22.5l1036 1141h-731q-52 0 -64 14q-6 7 -6 25q0 17 5 43l20 115q2 14 6 29.5t12.5 25.5t22.5 17t41 7h1042q29 0 43 -20q11 -16 12 -35q0 -5 -1 -10l-23 -129q-2 -10 -6 -22.5t-19 -22.5l-1009 -1123h776 q52 0 64 -14q6 -7 7 -26q0 -16 -5 -41l-21 -113q-6 -31 -20.5 -56.5t-61.5 -25.5h-1110q-47 0 -53 26z" />
<glyph unicode="[" horiz-adv-x="669" d="M-133 -287l2 4v7l362 2076v6l2 4q4 23 23.5 39.5t42.5 16.5h4h6h137h7h249q23 0 36.5 -16.5t9.5 -39.5l-29 -161q-4 -23 -23.5 -39.5t-42.5 -16.5h-188l-293 -1663h188q23 0 36.5 -16t9.5 -39l-29 -162q-4 -23 -23.5 -39t-42.5 -16h-250h-6h-133h-6h-4q-23 0 -36 16.5 t-9 38.5z" />
<glyph unicode="\" horiz-adv-x="1116" d="M219 1765q-8 25 6.5 45.5t42.5 20.5h158q53 0 66 -45l393 -1720q8 -25 -5.5 -45.5t-41.5 -20.5h-140q-55 0 -67 45z" />
<glyph unicode="]" horiz-adv-x="669" d="M-88 -287l29 162q4 23 21.5 39t39.5 16h186l293 1663h-190q-23 0 -35 16.5t-8 39.5l28 161q4 23 23.5 39.5t42.5 16.5h250h6h139h6h2q45 0 46 -49q4 -4 0 -17l-338 -1917l-2 -8l-29 -162q-4 -23 -23.5 -39t-42.5 -16h-149h-6h-244q-23 0 -36 16.5t-9 38.5z" />
<glyph unicode="^" horiz-adv-x="1099" d="M-4 1108q4 25 20 41l420 356l10 11l123 102l4 4l13 6l2 2q4 0 6 2h4q4 2 20 2q20 -4 31 -16l88 -105l4 -10l283 -338q14 -16 10 -40.5t-24 -41.5l-123 -104q-20 -16 -43 -16t-37 16l-250 307l-389 -325q-18 -16 -42 -16.5t-40 16.5l-82 106q-12 16 -8 41z" />
<glyph unicode="_" horiz-adv-x="1185" d="M39 66l22 129q4 25 27 45t51 20h938q29 0 44.5 -20.5t11.5 -44.5l-23 -129q-4 -25 -27.5 -45.5t-52.5 -20.5h-938q-29 0 -43 20.5t-10 45.5z" />
<glyph unicode="`" horiz-adv-x="577" d="M84 1571q-14 29 3 46t54 17h146q78 0 104 -51l66 -180q12 -29 -1.5 -47.5t-58.5 -18.5h-102q-27 0 -51.5 11.5t-50.5 44.5z" />
<glyph unicode="a" horiz-adv-x="1411" d="M-109 66q0 2 31 62t82 159.5t116.5 227.5t135.5 264t139.5 270.5t128 245t99.5 188.5t55 102q16 23 30.5 38t45.5 15h180q31 0 39 -16t14 -37l262 -1495q-2 -10 -2 -14v-10q-12 -66 -78 -66h-147q-33 0 -41 15.5t-14 37.5l-93 539l-542 -223l-168 -316q-16 -25 -28.5 -39 t-49.5 -14h-139q-25 0 -43 18q-14 14 -14 34q0 7 1 14zM520 739l303 125q-10 49 -15 81t-9 48q-2 16 -4 31.5t-4 32.5q-6 31 -10.5 65.5t-12.5 81.5z" />
<glyph unicode="b" horiz-adv-x="1441" d="M-10 66l260 1507q6 29 27.5 47t50.5 18h671q72 0 130.5 -27.5t96.5 -74.5q38 -46 53 -110q8 -35 8 -74q0 -30 -5 -62q-18 -104 -68 -170q-47 -66 -186 -133q162 -31 222 -119q40 -59 39 -154q0 -46 -9 -100l-31 -170q-16 -92 -65 -173t-120 -141t-158 -95t-179 -35h-688 q-29 0 -41 20q-9 15 -9 34q0 6 1 12zM291 272h483q74 0 133 52l25 24q29 29 39 46.5t14 49.5q18 106 19 119q6 33 6 60q0 17 -2 32q-6 37 -22.5 60.5t-41 33t-53.5 9.5h-262l-277 -137zM406 915q43 20 99 48t116.5 59t120 62.5t109.5 60.5t86 52.5t48 39.5q16 16 23 53 q2 9 2 17q0 21 -12 37q-16 22 -46 22h-467z" />
<glyph unicode="c" horiz-adv-x="1546" d="M80 641l63 356q25 137 98.5 259t179 212.5t237 143.5t268.5 53q125 0 227 -41t176 -114.5t115 -175t45 -220.5q0 -2 -3 -10t-3 -10q-10 -20 -27.5 -40t-46.5 -20h-137q-27 0 -38 12.5t-17 32.5q-10 47 -17.5 86t-28.5 74q-41 76 -117.5 118t-174.5 42q-82 0 -160 -32 t-142.5 -86t-108.5 -128t-58 -156l-64 -356q-6 -36 -6 -70q0 -45 10 -87q18 -72 62.5 -126.5t112 -86t149.5 -31.5q98 0 190 43t166 120q37 41 59.5 83t45.5 94l-5 -5q20 55 74 56h137q29 0 43.5 -20.5t10.5 -45.5q-4 -31 -17.5 -64.5t-29.5 -62.5q-53 -98 -132 -182 t-175.5 -146.5t-202 -97.5t-209.5 -35q-137 0 -250 52.5t-187.5 142.5t-105.5 211q-17 67 -17 139q0 58 11 119z" />
<glyph unicode="d" horiz-adv-x="1527" d="M-12 66l260 1507q4 25 27.5 45t52.5 20h579q135 0 245 -51t182 -139q74 -88 104 -207q17 -67 16 -138q0 -56 -10 -114l-60 -340q-25 -133 -96 -251.5t-175.5 -207t-231.5 -139.5t-263 -51h-579q-29 0 -43 18q-10 13 -10 32q0 7 2 16zM291 272h375q78 0 151.5 30t135 82 t103.5 119.5t56 145.5l59 340q6 33 6 65q0 42 -10 80q-18 68 -60 120.5t-105.5 82t-141.5 29.5h-375z" />
<glyph unicode="e" horiz-adv-x="1359" d="M-10 66l260 1507q6 29 28.5 47t51.5 18h989q51 0 55 -24q2 -10 2 -21q0 -16 -4 -34l-20 -113q-4 -29 -9.5 -44.5t-15.5 -23.5t-26.5 -10t-43.5 -2h-768l-65 -362h682q29 0 44 -19.5t11 -48.5l-24 -139q-6 -29 -28 -48.5t-50 -19.5h-682l-82 -457h795q53 0 66 -12 q7 -7 7 -27q0 -16 -4 -40l-20 -111q-6 -31 -18.5 -56.5t-63.5 -25.5h-1016q-29 0 -43 18q-10 13 -10 32q0 7 2 16z" />
<glyph unicode="f" horiz-adv-x="1269" d="M-10 66l260 1507q6 29 28.5 47t47.5 18h950q47 0 53 -24q3 -13 3 -26.5t-3 -28.5l-20 -113q-4 -29 -9.5 -44.5t-14.5 -23.5t-26.5 -10t-44.5 -2h-727l-69 -385h684q57 0 57 -48q0 -9 -2 -18l-24 -141q-12 -65 -76 -65h-2h-684l-111 -627q-6 -31 -18.5 -56.5t-63.5 -25.5 h-139q-25 0 -40 18q-11 14 -11 32q0 8 2 16z" />
<glyph unicode="g" horiz-adv-x="1564" d="M84 668l59 331q25 137 98.5 259t180 212.5t238 143.5t270.5 53q106 0 195 -32.5t160 -91t120 -140.5t74 -182q2 -9 2 -17q0 -22 -17 -40q-22 -25 -63 -25h-148q-39 0 -53 39l2 -2q-39 104 -117.5 164.5t-201.5 60.5q-84 0 -162 -32t-142.5 -86t-109.5 -128t-59 -156 l-60 -331q-9 -52 -9 -97t9 -82q19 -73 66 -129q47 -53 112.5 -84.5t151.5 -31.5q119 0 230.5 54t185.5 165q14 23 27.5 53.5t23.5 65.5q10 39 17 58t7 22h-352q-27 0 -43 20t-12 45l22 127q12 66 78 66h545q53 0 53 -47q0 -8 -2 -19q-4 -23 -5 -39t-5 -37q-4 -23 -6 -43 t-6 -41q-4 -10 -10.5 -36.5t-18.5 -69.5q-10 -43 -22.5 -79t-24.5 -65q-53 -115 -158 -225q-232 -238 -539 -238q-16 0 -32 1q-139 4 -252 54t-187.5 139t-105.5 214q-17 67 -17 142q0 65 13 137z" />
<glyph unicode="h" horiz-adv-x="1435" d="M-8 66l260 1507q4 25 25.5 45t50.5 20h139q51 0 55 -24.5t-2 -54.5l-123 -703l686 274l76 429q6 31 20.5 55t61.5 24h137q30 0 46 -20q13 -16 13 -36q0 -5 -1 -9l-265 -1507q-4 -25 -28.5 -45.5t-52.5 -20.5h-138q-47 0 -53 24.5t0 55.5l131 749l-686 -270l-84 -479 q-6 -31 -18 -55.5t-64 -24.5h-139q-29 0 -40 20q-8 15 -8 33q0 6 1 13z" />
<glyph unicode="i" d="M-8 66l260 1507q4 25 25.5 45t50.5 20h139q29 0 44 -20q12 -16 12 -35q0 -5 -1 -10l-264 -1507q-4 -25 -27.5 -45.5t-52.5 -20.5h-139q-29 0 -40 20q-8 15 -8 33q0 6 1 13z" />
<glyph unicode="j" horiz-adv-x="1394" d="M6 410q0 35 4 66.5t10 66.5l5 22q4 29 25.5 49.5t49.5 20.5h140q29 0 44 -20.5t11 -49.5l-4 -22q-6 -35 -9 -63.5t5 -61.5q16 -63 67.5 -104.5t118.5 -41.5h160q55 0 106.5 21.5t93 57.5t70.5 84t39 104l172 977q2 18 6 39.5t13.5 40t26 30.5t44.5 12h139q29 0 43 -20 q12 -17 12 -35q0 -5 -1 -10l-183 -1034q-18 -111 -77.5 -209.5t-145.5 -171t-190.5 -115.5t-214.5 -43h-160q-90 0 -167 30.5t-133 86t-88 130.5t-32 163z" />
<glyph unicode="k" horiz-adv-x="1431" d="M-12 66l262 1507q12 65 76 65h2h137q57 0 57 -46q0 -9 -2 -19l-100 -572l805 641l4 -6q2 2 22 2h191q29 0 46 -18q13 -13 13 -33q0 -7 -2 -14q-2 -27 -33 -49l-26 -27l-664 -534l459 -836l12 -23q16 -29 6 -52t-36 -40q-23 -12 -41 -12h-172q-18 0 -32 7t-24 30l2 -4 l-409 745q-51 -41 -92 -74.5t-95 -74.5l-100 -563q-10 -66 -78 -66h-137q-52 0 -52 49q0 8 1 17z" />
<glyph unicode="l" horiz-adv-x="1234" d="M-8 66l260 1507q12 65 74 65h2h141q47 0 52 -24.5t-1 -54.5l-227 -1287h680q55 0 67 -12q6 -6 5 -23q0 -17 -5 -44l-20 -111q-6 -31 -19.5 -56.5t-60.5 -25.5h-901q-49 0 -49 46q0 9 2 20z" />
<glyph unicode="m" horiz-adv-x="1847" d="M-10 55l260 1499q6 31 21.5 48.5t36 25.5t41 9t32.5 1h74q29 0 47 -6t33 -30l405 -656l641 662q30 30 83 30h3h80q14 0 33.5 -1t36 -8t25.5 -25q5 -11 5 -28q0 -11 -2 -24l-264 -1493q-8 -45 -30.5 -52t-51.5 -7h-121q-54 0 -66 14q-7 8 -6 27q0 16 5 41l190 1075 q-131 -135 -257 -266t-261 -262l2 4q-16 -23 -29.5 -27t-35.5 -4h-80q-29 0 -38 6t-22 27l-327 522l-191 -1075q-4 -27 -10 -43t-16.5 -24.5t-26.5 -11.5t-43 -3h-121h-11q-21 0 -35 6q-12 5 -12 26q0 10 3 23z" />
<glyph unicode="n" horiz-adv-x="1499" d="M-8 66l260 1507q4 25 25.5 45t50.5 20h151q37 0 49 -32v2l516 -1057l181 1022q4 25 27.5 45t52.5 20h139q29 0 44 -20q12 -16 12 -35q0 -5 -1 -10l-264 -1507q-4 -25 -27.5 -45.5t-52.5 -20.5h-139q-39 0 -51 31q-68 137 -132.5 267t-129 258t-130 259t-135.5 270 l-178 -1019q-4 -25 -27.5 -45.5t-52.5 -20.5h-141q-29 0 -40 20q-8 15 -8 33q0 6 1 13z" />
<glyph unicode="o" horiz-adv-x="1628" d="M63 662l56 321q27 141 105.5 265t192 215t254 144.5t287.5 53.5t268.5 -53.5t201 -144.5t113.5 -215q20 -71 20 -149q0 -57 -11 -116l-55 -321q-25 -141 -103.5 -265.5t-192.5 -216.5t-253 -145t-287 -53q-147 0 -268 53t-201.5 145t-115.5 216q-21 74 -21 153 q0 55 10 113zM340 662q-7 -37 -7 -72q1 -47 13 -90q22 -76 71.5 -133.5t124 -90t165.5 -32.5q90 0 175 32.5t154.5 90t117.5 133t65 162.5l55 321q6 35 6 68q0 49 -12 94q-20 76 -70.5 133t-124.5 90t-164 33t-176 -34t-155.5 -90t-118.5 -132t-64 -162z" />
<glyph unicode="p" horiz-adv-x="1325" d="M-10 66l260 1507q4 25 26.5 45t51.5 20h688q111 0 181.5 -39.5t106 -102t36.5 -141.5v-6q0 -76 -26 -151q-26 -78 -79 -147.5t-129 -114.5q-61 -35 -103 -60.5t-75 -41.5l-590 -297l-80 -457q-6 -31 -19.5 -55.5t-60.5 -24.5h-139q-29 0 -41 20q-9 16 -9 34q0 6 1 12z M393 844q86 41 181.5 89t181.5 95q20 10 53 28.5t66.5 39t61.5 40t38 31.5q49 61 49 122v9q-4 68 -70 68h-469z" />
<glyph unicode="q" horiz-adv-x="1652" d="M61 662l58 323q27 141 105.5 267t192 220.5t253 149.5t286.5 55q145 0 265 -55t201 -149.5t116 -220.5q20 -74 20 -152q0 -56 -10 -115l-57 -323q-16 -94 -60.5 -185.5t-105.5 -169.5l4 -6q4 0 57 -39q46 -36 46 -69v-7q-6 -25 -32 -55.5t-50 -58.5q-39 -51 -78 -58 q-5 -1 -9 -1q-35 0 -89 38l-76 51q-104 -66 -215 -95.5t-228 -29.5q-147 0 -267 53.5t-201 146.5t-115 218q-21 74 -21 153q0 56 10 114zM338 662q-6 -35 -6 -69q0 -46 11 -90q19 -77 66.5 -135.5t118 -94t158.5 -35.5q41 0 89 6t89 28q-4 2 -12 9q-6 4 -15.5 10t-19.5 16 q-32 25 -32 55q0 15 8 31q2 2 2 4q39 39 75 88q12 10 21 23q31 31 63 31q16 0 74 -39l88 -56q78 98 98 218l58 323q6 34 6 66q0 50 -14 97q-21 77 -70 134t-124 91t-163 34q-90 0 -175 -34t-154.5 -91t-118.5 -134t-64 -163z" />
<glyph unicode="r" horiz-adv-x="1431" d="M-10 66l260 1507q4 25 26.5 45t51.5 20h729q70 0 127 -28.5t96 -75.5q38 -46 56 -110q10 -36 10 -76q0 -29 -5 -58q-20 -117 -89.5 -191.5t-168.5 -133.5q16 -86 33 -168t33 -168q27 -135 53.5 -271.5t54.5 -273.5q3 -12 3 -23q0 -23 -16 -39q-23 -22 -64 -22h-156 q-33 0 -43 15.5t-14 35.5l-156 780q-117 -55 -224.5 -108t-228.5 -111l-94 -532q-6 -31 -19 -55.5t-61 -24.5h-145q-29 0 -41 20q-9 15 -9 34q0 6 1 12zM412 920q43 20 103 46.5t126 58.5t130.5 63.5t119.5 61.5t94 55.5t53 41.5v-2q14 16 21 43q1 8 1 16q0 24 -14 40 q-18 22 -53 22h-501z" />
<glyph unicode="s" horiz-adv-x="1368" d="M25 346q-1 18 -1 34q0 39 4 63q5 34 11 69v-4q4 31 17.5 55.5t60.5 24.5h139q49 0 53 -49q4 -20 2 -30.5t-6 -35.5q-4 -16 -6 -55q4 -76 57.5 -125t132.5 -49h156q92 0 171 47t108 129q4 10 6 20.5t6 20.5q4 20 7 58v10q0 31 -17 51q-37 37 -121 57t-191 47 q-94 23 -186 51.5t-161.5 74.5t-106.5 116q-25 47 -25 108q0 30 6 64l6 28q6 33 12.5 67t24.5 75l-2 -2q31 86 89.5 157.5t133 123.5t160.5 82t174 30h156q92 0 171 -32t138 -87q59 -54 82 -154q11 -46 10 -96q0 -59 -14 -123q-6 -31 -18.5 -55.5t-59.5 -24.5h-135 q-29 0 -44 20.5t-11 45.5q5 39 5 71q0 76 -30 114q-43 54 -141 55h-156q-39 0 -78 -13.5t-73.5 -38t-62 -57.5t-42.5 -72v2q-4 -12 -9 -29.5t-7 -38t3 -41t21 -38.5q31 -39 78 -53l226 -66q88 -27 150.5 -44t96.5 -32q39 -14 71 -31.5t60 -37.5q55 -43 83 -117 q17 -45 17 -101q0 -36 -7 -77q-10 -59 -33 -118.5t-53.5 -114t-67.5 -100.5t-76 -77q-80 -61 -180 -88.5t-211 -27.5h-156q-135 0 -236.5 62t-148.5 169q-33 66 -32 133z" />
<glyph unicode="t" horiz-adv-x="1310" d="M152 1454l18 105q6 31 19.5 55t60.5 24h1089q47 0 53 -24q3 -13 4 -27q0 -13 -3 -28l-19 -105q-8 -49 -24.5 -64.5t-69.5 -15.5h-393l-228 -1294q-6 -31 -19 -55.5t-60 -24.5h-142q-47 0 -52 24.5t1 55.5l227 1294h-397q-53 0 -63 16q-6 8 -6 26q0 15 4 38z" />
<glyph unicode="u" horiz-adv-x="1433" d="M59 494l193 1079q12 65 74 65h2h137q47 0 52 -24.5t-1 -54.5l-188 -1065q-3 -20 -4 -39q0 -26 7 -49q11 -41 37.5 -72t64.5 -48.5t85 -17.5h158q53 0 103 19.5t92 54.5t70 80t38 98l182 1039q6 31 20.5 55t61.5 24h135q58 0 58 -47q0 -8 -2 -18l-185 -1053 q-18 -109 -77.5 -203t-144.5 -164.5t-188.5 -111.5t-209.5 -41h-158q-102 0 -185 38t-140.5 104.5t-81.5 156.5q-13 51 -13 107q0 42 8 88z" />
<glyph unicode="v" horiz-adv-x="1458" d="M160 1573q12 65 78 65h2h157q31 0 40 -16t16 -37l194 -1194l608 1194l-4 -12q2 4 4 5t2 3q27 57 76 57h162q25 0 41 -20q13 -16 13 -35q0 -5 -1 -10q0 -4 -30.5 -67.5t-83.5 -164.5l-326 -608l-313 -583l-52 -97q-16 -25 -30.5 -39t-44.5 -14h-181q-35 0 -44 15.5 t-13 35.5l-70 408q-47 276 -91 539.5t-107 539.5q-3 8 -3 16z" />
<glyph unicode="w" horiz-adv-x="1976" d="M168 1534v14t2 21q10 51 38 59t58 8h113q23 0 43 -6t24 -45l74 -1091q121 279 236.5 544t234.5 545l-2 -6q18 59 78 59h98q51 0 56 -53l90 -1089l461 1091q16 39 36.5 45t44.5 6h115q12 0 27.5 -2t28 -10t18.5 -22q3 -6 3 -13q0 -10 -5 -22l-12 -33q-68 -184 -146 -371.5 t-161 -376t-165.5 -376t-156.5 -367.5q-10 -18 -20.5 -30.5t-51.5 -12.5h-201q-35 0 -44 13.5t-11 31.5q-14 135 -23.5 273.5t-19.5 273.5l-31 385l-397 -930q-10 -20 -22.5 -33.5t-47.5 -13.5h-202q-39 0 -45.5 12.5t-12.5 36.5z" />
<glyph unicode="x" horiz-adv-x="1372" d="M-96 66q0 8 29.5 49t72.5 100q23 31 78 99.5t147 179.5q180 217 228 270l69 80l-327 692q0 4 -2 16.5t-2 20.5q4 25 27.5 45t51.5 20h158q25 0 35 -12t20 -27v3l242 -543q174 229 280.5 365.5t147.5 185.5q22 28 59 28h3h165q26 0 42 -20q13 -16 13 -36q0 -5 -1 -9 q0 -8 -33 -51q-14 -23 -33.5 -47.5t-44.5 -53.5l-475 -577l352 -746v-24q-4 -31 -23.5 -52.5t-52.5 -21.5h-172q-25 0 -36 12.5t-17 26.5v-2l-260 579l-469 -579l4 6q-25 -43 -69 -43h-152q-29 0 -44 20q-12 16 -12 36q0 5 1 10z" />
<glyph unicode="y" horiz-adv-x="1425" d="M154 1554.5q0 8.5 4 20.5q8 63 73 63h181q37 0 53 -30l285 -568q205 248 324.5 390.5t162.5 185.5l-4 -4q24 26 57 26h2h185q55 0 55 -45q0 -9 -2 -20q-4 -16 -13.5 -30.5t-19.5 -24.5q-4 -4 -4 -5l-2 -2l-660 -751l-118 -680q-6 -31 -18.5 -55.5t-63.5 -24.5h-139 q-47 0 -52.5 24.5t0.5 55.5l121 684l-403 772q-4 10 -4 18.5z" />
<glyph unicode="z" horiz-adv-x="1339" d="M-90 26q-3 13 -3 26.5t3 29.5l16 88q4 16 10.5 28.5t16.5 22.5l1036 1141h-731q-52 0 -64 14q-6 7 -6 25q0 17 5 43l20 115q2 14 6 29.5t12.5 25.5t22.5 17t41 7h1042q29 0 43 -20q11 -16 12 -35q0 -5 -1 -10l-23 -129q-2 -10 -6 -22.5t-19 -22.5l-1009 -1123h776 q52 0 64 -14q6 -7 7 -26q0 -16 -5 -41l-21 -113q-6 -31 -20.5 -56.5t-61.5 -25.5h-1110q-47 0 -53 26z" />
<glyph unicode="{" horiz-adv-x="749" d="M39 670l24 141q8 55 64 55h57q41 0 70 25q14 12 28.5 55t22.5 84l64 361q10 66 30.5 130t67.5 130q41 57 87 98t112 96l14 13q45 39 78 0l96 -115q14 -16 10 -38t-22 -38l-39 -31l-55 -49q-14 -12 -24.5 -25.5t-21.5 -29.5q-33 -47 -57 -156l-72 -368q-16 -86 -51 -157 t-88 -112q47 -43 53.5 -108.5t-6.5 -136.5l-55 -371q-16 -106 -2 -154q6 -6 6 -16l4 -12q14 -43 47 -62l35 -18q39 -39 -8 -78l-137 -115q-23 -23 -43.5 -19.5t-34.5 19.5l-19 23l-69 76q-41 37 -55 86q-25 66 -22 128t13 128l66 362q6 41 7 75t-9 42q-25 27 -66 26h-57 q-55 0 -43 56z" />
<glyph unicode="|" d="M-59 -279l362 2077q4 25 26.5 45.5t51.5 20.5h137q29 0 44.5 -20.5t10.5 -45.5l-366 -2077q-4 -25 -27.5 -45t-52.5 -20h-133q-29 0 -43 20.5t-10 44.5z" />
<glyph unicode="}" horiz-adv-x="749" d="M-111 -217q-31 39 21 78l41 18q25 10 37 24.5t26 37.5q4 4 4 6t5 6q6 12 10 16q33 51 55 154l70 371q16 72 45.5 137t93.5 108q-41 41 -51 112t4 157l57 368q10 53 9 92t-9 64q-4 16 -11 29.5t-13 25.5l-39 49l-25 31q-16 16 -12 37.5t24 38.5l138 115q43 39 75 0l11 -13 q45 -53 76.5 -95t52.5 -99q25 -66 21.5 -130.5t-13.5 -129.5l-64 -361q-4 -20 -6 -41.5t-2 -42t2 -35t6 -20.5q18 -25 64 -25h55q51 0 43 -55l-24 -141q-12 -55 -64 -56h-55q-45 0 -74 -26q-12 -8 -24.5 -42t-18.5 -75l-65 -362q-10 -66 -30 -128.5t-69 -127.5 q-16 -23 -38.5 -44.5t-45.5 -41.5l-100 -76l-25 -23q-16 -16 -37.5 -19t-33.5 19z" />
<glyph unicode="~" horiz-adv-x="897" d="M27 705q-14 14 10 59l65 110q14 23 39 32t54 -3q76 -31 151.5 -20.5t153.5 25t157.5 15.5t159.5 -49q10 -6 17.5 -13t13.5 -15q16 -20 -12 -58l-70 -110q-20 -29 -47 -31t-45 8q-37 27 -83 33t-98.5 0t-108.5 -18.5t-113.5 -18.5t-113 -3t-104.5 28q-20 8 -26 29z" />
<glyph unicode="&#xa1;" d="M-10 -530l182 1071q4 25 27.5 45t52.5 20h139q29 0 43.5 -20.5t9.5 -44.5l-188 -1071q-4 -25 -26.5 -45.5t-51.5 -20.5h-139q-29 0 -41 20.5t-8 45.5zM221 821l29 152q4 25 26.5 45t51.5 20h139q29 0 43 -20.5t10 -44.5l-26 -152q-4 -25 -26 -45t-50 -20h-139 q-29 0 -45.5 20.5t-12.5 44.5z" />
<glyph unicode="&#xa2;" horiz-adv-x="1546" d="M96 702l31 172q20 117 78.5 224.5t143.5 194.5t190.5 147.5t220.5 85.5l14 73q4 25 25.5 45.5t50.5 20.5h139q29 0 45.5 -20.5t12.5 -45.5l-13 -69q98 -18 178 -65.5t136.5 -118t88 -160.5t36.5 -195q0 -2 -2.5 -10t-2.5 -10q-10 -20 -28.5 -40t-46.5 -20h-138 q-27 0 -37 12.5t-18 32.5q-8 47 -15 86t-28 74q-41 76 -117.5 118t-175.5 42q-82 0 -160.5 -32t-142 -86t-108.5 -128t-60 -156l-31 -172q-14 -84 4.5 -156.5t63.5 -126.5t112.5 -86t149.5 -32q98 0 189.5 43t165.5 121q39 41 60 83t44 93l-2 -4q18 55 74 55h137 q29 0 43 -20.5t10 -44.5q-6 -31 -19.5 -65t-29.5 -62q-43 -84 -107.5 -158t-142.5 -133t-166 -101t-176 -61l-14 -78q-4 -25 -26.5 -45t-51.5 -20h-139q-29 0 -44.5 20.5t-11.5 44.5l15 82q-106 25 -190.5 85.5t-138.5 146.5t-74.5 193.5t-0.5 225.5z" />
<glyph unicode="&#xa3;" horiz-adv-x="1607" d="M23 633l22 129q4 25 26.5 45t51.5 20h125l33 170q27 137 100.5 259t179 212.5t234.5 143.5t268 53q125 0 227.5 -41t176 -114.5t114.5 -175t45 -220.5q-2 -2 -4 -10t-2 -10q-10 -20 -27.5 -40t-46.5 -20h-137q-27 0 -38 12.5t-17 32.5q-10 47 -17.5 86t-27.5 74 q-41 76 -118 118t-175 42q-82 0 -160 -32t-142.5 -86t-108.5 -128t-58 -156l-31 -170h432q29 0 44.5 -20.5t11.5 -44.5l-23 -129q-4 -25 -26.5 -45.5t-51.5 -20.5h-432l-76 -424q109 12 244 43t267 53.5t243 24.5t170 -43q23 -20 31 -33q8 -14 5 -28.5t-20 -40.5l-73 -131 q-20 -35 -48 -39t-45 12q-35 33 -117.5 32t-190 -18.5t-228.5 -45t-232.5 -47t-204 -23t-139.5 25.5q-18 10 -22 35q-12 14 10 74l68 129q0 2 2 4t2 4l82 436h-121q-29 0 -44.5 20.5t-10.5 45.5z" />
<glyph unicode="&#xa5;" horiz-adv-x="1425" d="M154 1554.5q0 8.5 4 20.5q8 63 73 63h181q37 0 53 -30l285 -568q205 248 324.5 390.5t162.5 185.5l-4 -4q25 27 59 26h185q66 0 53 -65q-4 -16 -13.5 -30.5t-19.5 -24.5q-4 -4 -4 -5l-2 -2l-528 -602h88q29 0 45 -20.5t12 -44.5l-23 -129q-4 -25 -27.5 -45.5t-51.5 -20.5 h-193l-22 -129h192q29 0 44 -20.5t11 -44.5l-22 -129q-4 -25 -27.5 -45.5t-52.5 -20.5h-193l-30 -180q-6 -31 -18.5 -55.5t-63.5 -24.5h-139q-47 0 -52.5 24.5t0.5 55.5l31 180h-197q-29 0 -43 20.5t-10 45.5l23 129q4 25 26.5 45t51.5 20h196l23 129h-197q-29 0 -43 20.5 t-10 45.5l22 129q4 25 25.5 45t50.5 20h94l-325 627q-4 10 -4 18.5z" />
<glyph unicode="&#xa6;" d="M-59 -279l147 869q4 25 26.5 45t51.5 20h139q29 0 44.5 -20.5t10.5 -44.5l-153 -869q-4 -25 -27.5 -45t-52.5 -20h-133q-29 0 -43 20.5t-10 44.5zM147 926l156 872q4 25 26.5 45.5t51.5 20.5h137q29 0 44.5 -20.5t10.5 -45.5l-153 -872q-4 -25 -27.5 -45.5t-52.5 -20.5 h-139q-29 0 -43.5 20.5t-10.5 45.5z" />
<glyph unicode="&#xa8;" horiz-adv-x="931" d="M78 1446l26 143q4 25 25 44.5t49 19.5h133q27 0 42.5 -19.5t11.5 -44.5l-27 -143q-4 -25 -25.5 -44.5t-48.5 -19.5h-133q-29 0 -43 19.5t-10 44.5zM545 1446l26 143q4 25 24.5 44.5t47.5 19.5h133q29 0 44.5 -19.5t10.5 -44.5l-26 -143q-4 -25 -25.5 -44.5t-50.5 -19.5 h-133q-27 0 -41 19.5t-10 44.5z" />
<glyph unicode="&#xa9;" horiz-adv-x="1507" d="M41 799q27 160 104.5 294t189 231t251 152.5t291.5 55.5t272.5 -55.5t200.5 -152.5t111.5 -231.5t4.5 -293.5q-29 -160 -108.5 -294t-194 -231.5t-255 -152.5t-292.5 -55t-271.5 55t-196 152.5t-106.5 231.5t-1 294zM239.5 582.5q20.5 -99.5 75 -170t140.5 -110.5 t196 -40q111 0 212.5 40t183 110.5t139 170t80.5 216.5q18 117 -4.5 216t-79 169.5t-143 110.5t-197.5 40t-211.5 -40t-180 -110.5t-135 -170t-73.5 -215.5q-23 -117 -2.5 -216.5zM399 709l31 178q12 70 49 130t91.5 105t119 72t131.5 27q129 0 203 -76t78 -199l-2 -10 q-6 -10 -13.5 -20.5t-23.5 -10.5h-68q-23 0 -28 23q-4 25 -8.5 44t-14.5 36q-45 80 -147 79q-41 0 -80 -15t-71 -43t-53.5 -64.5t-29.5 -77.5l-31 -178q-6 -41 3.5 -77t31 -63.5t54 -44t73.5 -16.5q49 0 95.5 21.5t84.5 60.5q20 23 30.5 43t21.5 45l-2 -2q12 29 37 29h67 q16 0 23.5 -10.5t5.5 -22.5q-4 -16 -10.5 -31.5t-14.5 -32.5q-27 -49 -66.5 -91t-88 -73.5t-101.5 -49t-104 -17.5q-68 0 -123 26.5t-93 71.5t-53.5 105.5t-3.5 128.5z" />
<glyph unicode="&#xaa;" horiz-adv-x="890" />
<glyph unicode="&#xab;" horiz-adv-x="1411" d="M59 733q2 10 5.5 19.5t20.5 26t52 46t98.5 83t161 135t238.5 202.5q20 16 43 17q27 0 39 -17l88 -104q12 -23 8 -41q-4 -25 -22 -41l-383 -326l251 -307q12 -16 11 -41q-6 -25 -25 -41l-123 -104q-20 -16 -43 -17q-27 0 -39 17q-141 172 -220 263t-115.5 136t-43 60.5 t-2.5 33.5zM641 733q2 10 5 19.5t20.5 26t52.5 46t98.5 83t161 135t238.5 202.5q20 16 43 17q27 0 38 -17l88 -104q12 -23 9 -41q-4 -25 -23 -41l-383 -326l252 -307q12 -16 10 -41q-6 -25 -24 -41l-123 -104q-20 -16 -43 -17q-27 0 -39 17q-141 172 -220 263t-116 136 t-43 60.5t-2 33.5z" />
<glyph unicode="&#xad;" horiz-adv-x="1007" d="M76 715l22 129q4 25 26.5 45t51.5 20h662q29 0 44 -20.5t11 -44.5l-23 -129q-4 -25 -27.5 -45.5t-51.5 -20.5h-662q-29 0 -43 20.5t-10 45.5z" />
<glyph unicode="&#xae;" horiz-adv-x="1507" d="M41 799q27 160 104.5 294t189 231t251 152.5t291.5 55.5t272.5 -55.5t200.5 -152.5t111.5 -231.5t4.5 -293.5q-29 -160 -108.5 -294t-194 -231.5t-255 -152.5t-292.5 -55t-271.5 55t-196 152.5t-106.5 231.5t-1 294zM239.5 582.5q20.5 -99.5 75 -170t140.5 -110.5 t196 -40q111 0 212.5 40t183 110.5t139 170t80.5 216.5q18 117 -4.5 216t-79 169.5t-143 110.5t-197.5 40t-211.5 -40t-180 -110.5t-135 -170t-73.5 -215.5q-23 -117 -2.5 -216.5zM362 422l134 754q2 12 13 22t26 10h364q70 0 113 -52t30 -122q-10 -59 -45.5 -96t-83.5 -66 q10 -43 15.5 -85t15.5 -82q12 -70 26.5 -137.5t28.5 -135.5q6 -43 -38 -43h-78q-16 0 -20.5 8.5t-6.5 18.5l-80 389q-59 -29 -112.5 -54.5t-112.5 -54.5l-47 -266q-4 -16 -11.5 -28.5t-29.5 -12.5h-74q-14 0 -21.5 10.5t-5.5 22.5zM578 850q33 14 82 36.5t97 46t86 46 t48 35.5v-2q8 12 10 22q6 39 -35 39h-250z" />
<glyph unicode="&#xaf;" horiz-adv-x="827" d="M0 1444l20 129q6 25 28 45t50 20h662q29 0 44 -20.5t11 -44.5l-22 -129q-4 -25 -28 -45.5t-52 -20.5h-662q-29 0 -40 20.5t-11 45.5z" />
<glyph unicode="&#xb0;" horiz-adv-x="528" d="M20 1376q8 49 34 93t64 77t85 52.5t98 19.5q49 0 90 -19.5t69.5 -52.5t42 -77t5.5 -93q-10 -53 -39 -97t-69 -76t-87 -50t-96 -18t-89 18t-67.5 51t-39 77t-1.5 95zM156 1376q-16 -51 8 -82.5t76 -31.5q51 0 85.5 31.5t51.5 82.5q2 47 -22.5 81t-75.5 34q-53 0 -87 -34 t-36 -81z" />
<glyph unicode="&#xb1;" horiz-adv-x="1007" d="M8 59l21 129q4 25 26.5 45.5t50.5 20.5h662q29 0 44 -20.5t11 -45.5l-22 -129q-4 -25 -26.5 -43t-51.5 -18h-662q-29 0 -43 18.5t-10 42.5zM121 715l24 129q4 25 26 45t50 20h662q29 0 45 -20.5t12 -44.5l-25 -129q-4 -25 -26.5 -45.5t-50.5 -20.5h-662q-29 0 -44 20.5 t-11 45.5zM344 449l115 661q6 29 29.5 48.5t48.5 19.5h129q25 0 42 -19.5t11 -48.5l-115 -661q-6 -29 -29.5 -47.5t-48.5 -18.5h-129q-25 0 -42 18.5t-11 47.5z" />
<glyph unicode="&#xb4;" horiz-adv-x="501" d="M11 1355.5q-7 18.5 14 47.5l131 180q45 51 120 51h140q37 0 48 -17.5t-11 -45.5l-174 -178q-35 -33 -64 -44.5t-55 -11.5h-97q-45 0 -52 18.5z" />
<glyph unicode="&#xb7;" d="M104 713l27 151q4 25 26.5 45.5t51.5 20.5h139q29 0 44.5 -20.5t10.5 -45.5l-26 -151q-4 -25 -27.5 -45.5t-52.5 -20.5h-139q-29 0 -43.5 20.5t-10.5 45.5z" />
<glyph unicode="&#xb8;" horiz-adv-x="753" d="M36 -411.5q7 22.5 32 34.5l98 51q27 12 45 1t29 -33q8 -16 24.5 -29.5t40.5 -13.5h39q39 0 64.5 19.5t31.5 53.5q6 33 -12 56.5t-57 23.5h-9h-88q-29 0 -35 18.5t11 49.5l104 190q31 35 54.5 46.5t44.5 11.5h71q35 0 40 -20.5t-11 -47.5l-55 -94l20 -4t21 -6 q68 -23 101.5 -80.5t16.5 -143.5q-10 -55 -39.5 -105t-72.5 -88t-95.5 -59.5t-107.5 -21.5h-98q-59 0 -104.5 23.5t-76.5 62.5q-8 14 -15 27.5t-11 29.5q-8 25 -1 47.5z" />
<glyph unicode="&#xbb;" horiz-adv-x="1411" d="M16 385q4 25 23 41l362 307l-268 326q-12 16 -10 41q4 10 9 20t15 21l125 104q20 16 43 17q27 -1 39 -17q98 -121 166 -202.5t113 -135t69.5 -83t36 -46t12.5 -26t-1 -19.5q-2 -12 -7.5 -22.5t-21.5 -26.5t-50 -45t-95.5 -79t-154.5 -128t-228 -192q-20 -16 -43 -17 q-27 0 -39 17l-86 104q-14 16 -9 41zM598 385q4 25 23 41l362 307l-268 326q-12 16 -10 41q6 18 24 41l125 104q20 16 43 17q27 -1 39 -17q98 -121 166.5 -202.5t113 -135t69 -83t35.5 -46t12 -26t-1 -19.5q-2 -12 -7 -22.5t-21.5 -26.5t-50 -45t-95 -79t-155 -128 t-228.5 -192q-20 -16 -43 -17q-27 0 -39 17l-86 104q-14 16 -8 41z" />
<glyph unicode="&#xbf;" horiz-adv-x="1353" d="M-20.5 -317.5q-2.5 77.5 24.5 154.5t78 145.5t123 111.5q59 35 102 60.5t76 42.5l164 82l53 299q4 31 22.5 48t63.5 17h137q29 0 41.5 -20.5t7.5 -44.5l-49 -281q-8 -41 -16 -71.5t-25.5 -56.5t-47 -49.5t-81.5 -49.5l-256 -129q-29 -20 -47 -33.5t-28 -22.5 q-61 -59 -50 -135q12 -78 76 -84h328q98 0 156.5 27.5t89.5 103.5q8 39 12 56l2 8q6 39 22.5 55t57.5 16h137q43 0 51 -16t2 -55l-6 -37q-6 -35 -27.5 -102.5t-62.5 -127.5q-23 -33 -58.5 -64.5t-88.5 -64.5q-106 -66 -334 -65h-334q-109 0 -177.5 40t-102 102.5t-36 140z M645 836l27 151q4 25 27.5 45.5t52.5 20.5h139q29 0 43 -20.5t10 -45.5l-26 -151q-4 -25 -27 -45.5t-51 -20.5h-140q-29 0 -44 20.5t-11 45.5z" />
<glyph unicode="&#xc0;" horiz-adv-x="1411" d="M-147 66q0 2 30.5 62t81.5 159.5t118 227.5t136.5 264t139 270.5t128 245t99.5 188.5t55 102q16 23 30.5 38t45.5 15h180q31 0 38 -16t15 -37l260 -1495q0 -16 -2 -24q-10 -66 -75 -66h-148q-33 0 -41 15.5t-16 37.5l-90 539l-545 -223l-168 -316q-16 -25 -27.5 -39 t-46.5 -14h-141q-25 0 -43.5 18.5t-13.5 47.5zM481 739l305 125q-10 49 -16 81t-8 48t-4 31.5t-4 32.5q-6 31 -10.5 65.5t-14.5 81.5zM571 2001q-14 29 3.5 46t54.5 17h145q78 0 105 -51l65 -180q12 -29 -1 -47.5t-58 -18.5h-103q-27 0 -51 11.5t-49 44.5z" />
<glyph unicode="&#xc1;" horiz-adv-x="1411" d="M-147 66q0 2 30.5 62t81.5 159.5t118 227.5t136.5 264t139 270.5t128 245t99.5 188.5t55 102q16 23 30.5 38t45.5 15h180q31 0 38 -16t15 -37l260 -1495q0 -16 -2 -24q-12 -66 -75 -66h-148q-33 0 -42 15.5t-15 37.5l-90 539l-545 -223l-168 -316q-16 -25 -27.5 -39 t-46.5 -14h-141q-25 0 -43.5 18.5t-13.5 47.5zM481 739l305 125q-10 49 -16 81t-8 48t-4 31.5t-4 32.5q-6 31 -10.5 65.5t-14.5 81.5zM714 1787.5q-7 18.5 15 47.5l129 180q45 51 121 51h139q37 0 48.5 -17t-11.5 -46l-172 -178q-37 -33 -65.5 -44.5t-55.5 -11.5h-96 q-45 0 -52 18.5z" />
<glyph unicode="&#xc2;" horiz-adv-x="1411" d="M-147 66q0 2 30.5 62t81.5 159.5t118 227.5t136.5 264t139 270.5t128 245t99.5 188.5t55 102q14 23 28.5 38t45.5 15h180q31 0 39 -16t16 -37l260 -1495q0 -16 -2 -24q-12 -66 -78 -66h-147q-33 0 -41 15.5t-14 37.5l-92 539l-543 -223l-168 -316q-16 -25 -28.5 -39 t-47.5 -14h-141q-25 0 -42.5 18.5t-12.5 47.5zM446.5 1785.5q-6.5 22.5 32.5 53.5l223 178q31 31 63 43.5t62 12.5h107q45 0 67.5 -15.5t45.5 -40.5l159 -178q29 -31 13.5 -53.5t-58.5 -22.5h-137q-37 0 -59.5 11.5t-51.5 42.5l-63 69l-90 -69q-41 -31 -67.5 -42.5 t-63.5 -11.5h-133q-43 0 -49.5 22.5zM481 739l305 125q-23 100 -24 129q-2 16 -4 31.5t-6 32.5q-4 31 -9.5 65.5t-13.5 81.5z" />
<glyph unicode="&#xc3;" horiz-adv-x="1411" d="M-152 66q0 2 31 62t82 159.5t116.5 227.5t136.5 264t139.5 270.5t127 245t100.5 188.5t56 102q14 23 28.5 38t45.5 15h180q31 0 39 -16t16 -37l260 -1495q0 -10 -1 -14t-1 -10q-12 -66 -78 -66h-147q-33 0 -41 15.5t-14 37.5l-93 539l-542 -223l-168 -316 q-16 -25 -28.5 -39t-47.5 -14h-141q-25 0 -43.5 18.5t-12.5 47.5zM477 739l303 125q-10 49 -15 81t-7 48t-5 31.5t-5 32.5q-4 31 -9.5 65.5t-13.5 81.5zM508 1831q-16 16 10 59l64 111q16 23 40.5 32t53.5 -3q51 -20 92 -22.5t78 4.5t72.5 18.5t74.5 14.5t83 -5t98 -39 q25 -8 30 -29q16 -14 -10 -57l-72 -111q-18 -29 -45.5 -30.5t-46.5 8.5q-37 27 -73.5 32t-75.5 -0.5t-80 -17.5t-84 -18t-89.5 -3.5t-95.5 27.5q-23 10 -24 29z" />
<glyph unicode="&#xc4;" horiz-adv-x="1411" d="M-145 66q0 2 30.5 62t81.5 159.5t118 227.5t136.5 264t139 270.5t128 245t99.5 188.5t55 102q16 23 30.5 38t45.5 15h180q31 0 38 -16t15 -37l260 -1495q0 -16 -2 -24q-10 -66 -75 -66h-148q-33 0 -41 15.5t-16 37.5l-90 539l-545 -223l-168 -316q-16 -25 -27.5 -39 t-48.5 -14h-139q-25 0 -43.5 18.5t-13.5 47.5zM477 1833l25 143q4 25 24.5 44.5t48.5 19.5h134q27 0 42 -19.5t11 -44.5l-25 -143q-4 -25 -26.5 -44.5t-48.5 -19.5h-134q-29 0 -42 19.5t-9 44.5zM483 739l305 125q-10 49 -16 81t-8 48t-4 31.5t-4 32.5q-6 31 -10.5 65.5 t-14.5 81.5zM944 1833l25 143q4 25 24.5 44.5t46.5 19.5h134q29 0 44 -19.5t11 -44.5l-25 -143q-4 -25 -26.5 -44.5t-51.5 -19.5h-133q-27 0 -40 19.5t-9 44.5z" />
<glyph unicode="&#xc5;" horiz-adv-x="1411" d="M-137 66q0 2 41 82.5t106.5 209.5t147.5 287t163.5 315.5t153.5 296t119 226.5l31 57l-23 25q-29 31 -38 74.5t1 91.5q8 47 34 90t61.5 74.5t78.5 50t90 18.5h84q45 0 82 -18.5t61.5 -51t35 -74.5t2.5 -89q-10 -49 -35 -91.5t-60 -74.5q-16 -16 -30 -25l252 -1450 q-2 -10 -2 -14v-10q-12 -66 -78 -66h-148q-33 0 -41 15.5t-14 37.5l-92 539l-543 -223l-168 -316q-16 -25 -28.5 -39t-49.5 -14h-139q-25 0 -43 18.5t-12 47.5zM492 739l303 125l-52 373zM739 1720q-4 -29 13.5 -51t46.5 -22h32q29 0 54.5 22.5t29.5 50.5q6 33 -12 53.5 t-47 20.5h-33q-29 0 -53.5 -20.5t-30.5 -53.5z" />
<glyph unicode="&#xc6;" horiz-adv-x="1994" d="M-103.5 20.5q-17.5 20.5 13.5 65.5q31 43 166 236.5t389 543.5q254 352 381 529.5t133 189.5q16 23 35.5 36t58.5 17h881q51 0 55 -24.5t-2 -54.5l-20 -113q-4 -29 -9.5 -44.5t-15.5 -23.5t-26.5 -10t-43.5 -2h-585l-70 -391h500q29 0 43 -19.5t10 -48.5l-23 -131 q-6 -29 -27.5 -48t-49.5 -19h-500l-78 -437h612q53 0 66.5 -12t3.5 -67l-20 -111q-6 -31 -18.5 -56.5t-63.5 -25.5h-828q-29 0 -46 18.5t-11 47.5l80 458l-457 -141l-223 -320q-29 -41 -44.5 -52t-51.5 -11h-160q-37 0 -54.5 20.5zM621 698l315 103l76 432z" />
<glyph unicode="&#xc7;" horiz-adv-x="1546" d="M126 442.5q-13 94.5 5 198.5l64 356q25 137 98.5 259t180 212.5t236.5 143.5t267 53q125 0 227.5 -41t176 -114.5t114.5 -175t45 -220.5q-2 -2 -4 -10t-2 -10q-10 -20 -27.5 -40t-46.5 -20h-137q-27 0 -38 12.5t-17 32.5q-10 47 -17.5 86t-27.5 74q-41 76 -118 118 t-175 42q-82 0 -160 -32t-142.5 -86t-108.5 -128t-58 -156l-64 -356q-14 -84 4.5 -156.5t62.5 -127t111.5 -86t149.5 -31.5q98 0 189.5 43t164.5 120q39 41 61.5 83t45.5 94l-4 -5q18 55 73 56h138q29 0 43 -20.5t10 -45.5q-4 -31 -18.5 -64.5t-30.5 -62.5 q-41 -74 -94.5 -143.5t-119 -125.5t-140 -98t-156.5 -63l-66 -14l-47 -88q10 -2 19.5 -4t19.5 -6q68 -23 101.5 -80.5t19.5 -143.5q-10 -55 -41 -105t-74 -88t-95 -59.5t-108 -21.5h-98q-59 0 -104 23.5t-76 62.5q-8 14 -15.5 27.5t-11.5 29.5q-8 25 -1 47.5t32 34.5l100 51 q25 12 44.5 1t27.5 -33q8 -16 24.5 -29.5t41.5 -13.5h38q82 0 99 73q4 33 -14.5 56.5t-57.5 23.5h-96q-29 0 -36 19.5t11 48.5l88 162q-49 4 -95 14t-87 31q-84 39 -147.5 100t-103.5 141t-53 174.5z" />
<glyph unicode="&#xc8;" horiz-adv-x="1359" d="M-49 66l258 1507q6 29 29.5 47t52.5 18h989q51 0 55 -24.5t-2 -54.5l-18 -113q-10 -55 -26.5 -67.5t-69.5 -12.5h-768l-66 -362h682q29 0 44 -19.5t11 -48.5l-24 -139q-6 -29 -27.5 -48.5t-50.5 -19.5h-682l-82 -457h795q53 0 66 -12t3 -67l-20 -111q-4 -31 -17.5 -56.5 t-64.5 -25.5h-1014q-29 0 -44 18.5t-9 47.5zM578 2015q-14 29 3 46.5t54 17.5h160q78 0 104 -51l66 -181q12 -29 -2.5 -47t-59.5 -18h-117q-27 0 -51 11t-49 44z" />
<glyph unicode="&#xc9;" horiz-adv-x="1359" d="M-49 66l260 1507q4 29 27.5 47t52.5 18h989q51 0 55 -24.5t-2 -54.5l-18 -113q-10 -55 -26.5 -67.5t-69.5 -12.5h-768l-64 -362h682q29 0 43 -19.5t10 -48.5l-24 -139q-6 -29 -27.5 -48.5t-50.5 -19.5h-682l-80 -457h795q53 0 65 -12t2 -67l-20 -111q-4 -31 -17.5 -56.5 t-64.5 -25.5h-1014q-29 0 -44 18.5t-9 47.5zM697.5 1796.5q-7.5 18.5 15.5 46.5l129 180q45 51 123 52h139q37 0 48 -17.5t-13 -46.5l-172 -178q-37 -33 -66 -44t-55 -11h-96q-45 0 -52.5 18.5z" />
<glyph unicode="&#xca;" horiz-adv-x="1359" d="M-49 66l258 1507q6 29 29.5 47t52.5 18h989q51 0 55 -24.5t-2 -54.5l-20 -113q-4 -29 -9.5 -44.5t-15.5 -23.5t-26.5 -10t-42.5 -2h-768l-66 -362h682q29 0 44 -19.5t11 -48.5l-24 -139q-6 -29 -27.5 -48.5t-50.5 -19.5h-682l-82 -457h795q53 0 66 -12t3 -67l-20 -111 q-6 -31 -18.5 -56.5t-63.5 -25.5h-1014q-29 0 -44 18.5t-9 47.5zM436 1794.5q-6 22.5 33 52.5l223 178q33 31 63.5 43.5t61.5 12.5h107q45 0 67.5 -15.5t44.5 -40.5l160 -178q29 -31 13.5 -53t-58.5 -22h-137q-37 0 -58.5 11t-52.5 42l-63 69l-90 -69q-41 -31 -68 -42 t-64 -11h-133q-43 0 -49 22.5z" />
<glyph unicode="&#xcb;" horiz-adv-x="1359" d="M-45 66l260 1507q4 29 28.5 47t53.5 18h989q25 0 37 -7t17.5 -17t3 -25.5t-4.5 -29.5l-20 -113q-4 -29 -10 -44.5t-16.5 -23.5t-27 -10t-42.5 -2h-768l-64 -362h682q29 0 44.5 -19.5t8.5 -48.5l-24 -139q-4 -29 -26.5 -48.5t-51.5 -19.5h-682l-80 -457h795q53 0 65.5 -12 t1.5 -67l-18 -111q-6 -31 -18.5 -56.5t-63.5 -25.5h-1014q-29 0 -44 18.5t-11 47.5zM465 1829l22 131q4 20 24.5 38.5t49.5 18.5h133q27 0 42.5 -18.5t11.5 -38.5l-23 -131q-4 -20 -25.5 -37.5t-48.5 -17.5h-133q-29 0 -43 17t-10 38zM934 1829l22 131q4 20 24.5 38.5 t47.5 18.5h133q29 0 44.5 -18.5t11.5 -38.5l-23 -131q-4 -20 -25.5 -37.5t-50.5 -17.5h-133q-27 0 -41 17t-10 38z" />
<glyph unicode="&#xcc;" d="M-47 66l260 1507q4 25 25.5 45t50.5 20h139q29 0 45 -20.5t12 -44.5l-266 -1507q-4 -25 -27.5 -45.5t-52.5 -20.5h-137q-29 0 -41 20.5t-8 45.5zM147 2007q-16 29 2.5 46.5t47.5 17.5h145q74 0 100 -52l68 -180q10 -29 -3 -47t-58 -18h-103q-27 0 -51.5 11t-46.5 44z" />
<glyph unicode="&#xcd;" d="M-47 66l260 1507q4 25 26.5 45t51.5 20h139q29 0 44 -20.5t11 -44.5l-266 -1507q-4 -25 -26.5 -45.5t-51.5 -20.5h-137q-29 0 -42 20.5t-9 45.5zM275.5 1785.5q-7.5 18.5 13.5 47.5l131 180q45 51 121 51h139q37 0 48 -17t-11 -46l-172 -178q-37 -33 -65.5 -44.5 t-55.5 -11.5h-96q-45 0 -52.5 18.5z" />
<glyph unicode="&#xce;" d="M-47 66l260 1507q4 25 25.5 45t50.5 20h139q29 0 45 -20.5t12 -44.5l-266 -1507q-4 -25 -27.5 -45.5t-52.5 -20.5h-137q-29 0 -41 20.5t-8 45.5zM13 1783.5q-5 22.5 30 53.5l213 178q31 31 62.5 43.5t60.5 12.5h106q45 0 67.5 -15.5t45.5 -40.5l160 -178 q29 -31 13.5 -53.5t-58.5 -22.5h-138q-37 0 -59 11.5t-51 42.5l-64 69l-90 -69q-41 -31 -66.5 -42.5t-62.5 -11.5h-123q-41 0 -46 22.5z" />
<glyph unicode="&#xcf;" d="M-45 66l260 1507q4 25 26.5 45t51.5 20h139q29 0 44.5 -20.5t10.5 -44.5l-266 -1507q-4 -25 -26.5 -45.5t-51.5 -20.5h-137q-29 0 -42 20.5t-9 45.5zM45 1837l25 143q4 25 24.5 44.5t48.5 19.5h123q27 0 42.5 -19.5t10.5 -44.5l-26 -143q-4 -25 -25.5 -44t-48.5 -19h-123 q-29 0 -42 19t-9 44zM500 1837l24 143q4 25 24.5 44.5t47.5 19.5h133q29 0 44 -19.5t11 -44.5l-24 -143q-4 -25 -26.5 -44t-51.5 -19h-133q-27 0 -40 19t-9 44z" />
<glyph unicode="&#xd0;" horiz-adv-x="1527" d="M-12 66l106 647h-71q-25 0 -33 20.5t-2 44.5l14 109q4 25 19.5 45t44.5 20h71l111 621q4 25 27.5 45t52.5 20h579q135 0 245 -51t182.5 -139t103 -207t6.5 -252l-60 -340q-25 -133 -96 -251.5t-175.5 -207t-231.5 -139.5t-263 -51h-579q-29 0 -43 18.5t-8 47.5zM291 272 h375q78 0 151.5 30t135 82t103.5 119.5t56 145.5l59 340q14 76 -4 144.5t-60 121t-105.5 82t-141.5 29.5h-375l-73 -414h280q29 0 44.5 -20.5t11.5 -44.5l-19 -109q-4 -25 -27.5 -45t-52.5 -20h-280z" />
<glyph unicode="&#xd1;" horiz-adv-x="1499" d="M-51 66l260 1507q4 25 26.5 45t51.5 20h151q37 0 49 -32v2l517 -1057l180 1022q4 25 27.5 45t52.5 20h139q29 0 44 -20.5t11 -44.5l-266 -1507q-4 -25 -26.5 -45.5t-51.5 -20.5h-139q-39 0 -53 31q-68 137 -132.5 267t-128 258t-129 259t-135.5 270l-180 -1019 q-4 -25 -26.5 -45.5t-51.5 -20.5h-139q-29 0 -42 20.5t-9 45.5zM545 1817q-14 14 10 59l66 111q14 23 38.5 32t53.5 -4q49 -20 91 -22t80 5t72.5 18.5t73.5 14.5t83 -5.5t99 -38.5q23 -10 29 -29q18 -16 -10 -57l-70 -111q-20 -29 -47 -31t-45 8q-37 27 -75 32t-76.5 0 t-78.5 -17.5t-83 -18.5t-89.5 -3t-95.5 28q-20 8 -26 29z" />
<glyph unicode="&#xd2;" horiz-adv-x="1628" d="M27 662l55 321q25 141 104.5 265t193.5 215t254 144.5t288 53.5q147 0 268 -53.5t200.5 -144.5t113.5 -215t9 -265l-55 -321q-25 -141 -103.5 -265.5t-192 -216.5t-253 -145t-286.5 -53t-268.5 53t-202 145t-115.5 216t-10 266zM303 662q-16 -86 5.5 -162t71.5 -133.5 t125 -90t165 -32.5t175 32.5t154.5 90t117.5 133t65 162.5l55 321q14 86 -6.5 162t-70.5 133t-123.5 90t-164.5 33q-90 0 -176 -34t-155.5 -90t-118.5 -132t-64 -162zM698 2015q-12 29 5.5 46.5t54.5 17.5h145q76 0 103 -51l67 -181q12 -29 -2 -47t-59 -18h-103 q-27 0 -51 11t-49 44z" />
<glyph unicode="&#xd3;" horiz-adv-x="1628" d="M27 662l55 321q25 141 104.5 265t193.5 215t254 144.5t288 53.5q147 0 268 -53.5t200.5 -144.5t113.5 -215t9 -265l-55 -321q-25 -141 -103.5 -265.5t-192 -216.5t-253 -145t-286.5 -53t-268.5 53t-202 145t-115.5 216t-10 266zM303 662q-16 -86 5.5 -162t71.5 -133.5 t125 -90t165 -32.5t175 32.5t154.5 90t117.5 133t65 162.5l55 321q14 86 -6.5 162t-70.5 133t-123.5 90t-164.5 33q-90 0 -176 -34t-155.5 -90t-118.5 -132t-64 -162zM818 1800.5q-7 18.5 16 46.5l129 181q45 51 122 51h140q37 0 48 -17.5t-13 -46.5l-173 -178 q-37 -33 -65.5 -44t-54.5 -11h-97q-45 0 -52 18.5z" />
<glyph unicode="&#xd4;" horiz-adv-x="1628" d="M27 662l55 321q25 141 104.5 265t193.5 215t254 144.5t288 53.5q147 0 268 -53.5t200.5 -144.5t113.5 -215t9 -265l-55 -321q-25 -141 -103.5 -265.5t-192 -216.5t-253 -145t-286.5 -53t-268.5 53t-202 145t-115.5 216t-10 266zM303 662q-16 -86 5.5 -162t71.5 -133.5 t125 -90t165 -32.5t175 32.5t154.5 90t117.5 133t65 162.5l55 321q14 86 -6.5 162t-70.5 133t-123.5 90t-164.5 33q-90 0 -176 -34t-155.5 -90t-118.5 -132t-64 -162zM551 1792q-6 23 33 53l223 178q33 31 63.5 43.5t61.5 12.5h106q45 0 67.5 -15.5t45.5 -40.5l160 -178 q29 -31 13.5 -53.5t-58.5 -22.5h-138q-37 0 -59 11.5t-51 42.5l-64 69l-90 -69q-41 -31 -67.5 -42.5t-63.5 -11.5h-133q-43 0 -49 23z" />
<glyph unicode="&#xd5;" horiz-adv-x="1628" d="M20 662l58 321q25 141 103.5 265t192 215t254 144.5t287.5 53.5t268.5 -53.5t202 -144.5t114.5 -215t9 -265l-57 -321q-25 -141 -102.5 -265.5t-191.5 -216.5t-253 -145t-287 -53q-147 0 -268 53t-201.5 145t-116.5 216t-12 266zM297 662q-16 -86 5.5 -162t71.5 -133.5 t124.5 -90t165.5 -32.5q90 0 175 32.5t154.5 90t117.5 133t65 162.5l57 321q14 86 -6.5 162t-70.5 133t-124 90t-164 33t-176 -34t-156.5 -90t-118.5 -132t-63 -162zM616 1847q-14 14 11 60l65 110q14 23 39 32t53 -3q51 -20 92.5 -22.5t79 5t72.5 18.5t74 14t83 -5t99 -39 q23 -10 29 -28q18 -16 -10 -58l-70 -110q-18 -29 -46 -31t-46 8q-53 43 -110.5 37t-119 -21.5t-128 -23.5t-140.5 29q-20 8 -27 28z" />
<glyph unicode="&#xd6;" horiz-adv-x="1628" d="M31 662l55 321q25 141 104.5 265t193.5 215t254 144.5t288 53.5q147 0 268 -53.5t201 -144.5t113.5 -215t9.5 -265l-56 -321q-25 -141 -103.5 -265.5t-192 -216.5t-253 -145t-286.5 -53t-268 53t-202 145t-116 216t-10 266zM307 662q-16 -86 5.5 -162t71.5 -133.5 t125 -90t165 -32.5t175 32.5t154.5 90t117.5 133t65 162.5l55 321q14 86 -6.5 162t-70.5 133t-123.5 90t-163.5 33t-176.5 -34t-156 -90t-118.5 -132t-64 -162zM582 1841l24 137q4 23 24.5 41.5t49.5 18.5h135q29 0 44 -18.5t11 -41.5l-24 -137q-4 -25 -25.5 -43t-50.5 -18 h-135q-29 0 -43 18.5t-10 42.5zM1057 1841l24 137q4 23 24.5 41.5t47.5 18.5h135q31 0 46.5 -18.5t11.5 -41.5l-25 -137q-4 -25 -25.5 -43t-52.5 -18h-135q-27 0 -41 18.5t-10 42.5z" />
<glyph unicode="&#xd7;" horiz-adv-x="1007" d="M116 572q3 26 29 49l166 141l-114 143q-16 23 -11.5 50.5t25.5 43.5l108 93q20 16 47 18t48 -20l114 -142l168 142q27 23 52.5 19.5t42.5 -19.5l75 -91q14 -16 9 -44.5t-27 -49.5l-160 -141l109 -141q20 -23 13 -49.5t-30 -45.5l-106 -90q-23 -18 -48.5 -20t-45.5 20 l-115 142l-168 -142q-27 -23 -52.5 -20.5t-41.5 20.5l-74 90q-16 18 -13 44z" />
<glyph unicode="&#xd8;" horiz-adv-x="1628" d="M60.5 -142.5q-5.5 25.5 19.5 60.5l151 219q-10 10 -19 20.5t-19 20.5q-84 92 -118 217t-9 267l57 321q27 141 105.5 265t192.5 215t253 144.5t287 53.5q143 0 268 -53l10 -4l82 118q23 25 43 37.5t53 12.5h105q57 0 61 -26t-18 -60l-146 -211l11 -13q80 -98 114.5 -218 t9.5 -261l-57 -321q-25 -141 -102.5 -265.5t-191 -216.5t-253 -145t-286.5 -53q-66 0 -126.5 10t-117.5 28l-96 -139q-23 -25 -43.5 -37t-53.5 -12h-104q-57 0 -62.5 25.5zM342 662q-12 -82 6 -162q18 -63 55 -115l674 983q-68 33 -164 33q-90 0 -176 -34t-155.5 -90 t-118.5 -132t-64 -162zM586 260q66 -16 123 -16q90 0 176 32.5t155.5 90t117.5 133t63 162.5l57 321q8 41 6 81t-12 81q-10 35 -31 72z" />
<glyph unicode="&#xd9;" horiz-adv-x="1433" d="M23 494l190 1079q12 66 78 65h137q25 0 36 -7t15 -17t3 -25.5t-3 -29.5l-188 -1065q-8 -47 3 -88t37.5 -72t64.5 -48.5t85 -17.5h158q53 0 103.5 19.5t92.5 54.5t69.5 80t37.5 98l182 1039q4 31 19.5 55t62.5 24h135q68 0 56 -65l-185 -1053q-18 -109 -77.5 -203 t-144.5 -164.5t-188.5 -111.5t-209.5 -41h-158q-102 0 -185 38t-139.5 104.5t-81 156.5t-5.5 195zM616 1999q-14 29 3.5 46t54.5 17h145q78 0 105 -51l65 -180q12 -29 -1 -47.5t-58 -18.5h-103q-27 0 -51 11.5t-51 44.5z" />
<glyph unicode="&#xda;" horiz-adv-x="1433" d="M23 494l190 1079q12 66 78 65h137q25 0 36 -7t15 -17t3 -25.5t-3 -29.5l-188 -1065q-8 -47 3 -88t37.5 -72t64.5 -48.5t85 -17.5h158q53 0 103.5 19.5t92.5 54.5t69.5 80t37.5 98l182 1039q4 31 19.5 55t62.5 24h135q68 0 56 -65l-185 -1053q-18 -109 -77.5 -203 t-144.5 -164.5t-188.5 -111.5t-209.5 -41h-158q-102 0 -185 38t-139.5 104.5t-81 156.5t-5.5 195zM727 1783.5q-8 18.5 14 47.5l131 180q45 51 121 51h140q37 0 48 -17t-12 -46l-174 -178q-35 -33 -63.5 -44.5t-54.5 -11.5h-97q-45 0 -53 18.5z" />
<glyph unicode="&#xdb;" horiz-adv-x="1433" d="M23 494l188 1079q12 66 78 65h137q25 0 36 -7t15 -17t3 -25.5t-3 -29.5l-188 -1065q-8 -47 3 -88t37.5 -72t64.5 -48.5t85 -17.5h158q53 0 103.5 19.5t91 54.5t68.5 80t38 98l184 1039q4 31 19.5 55t62.5 24h135q68 0 56 -65l-187 -1053q-18 -109 -76.5 -203 t-143.5 -164.5t-188.5 -111.5t-209.5 -41h-158q-102 0 -185 38t-139.5 104.5t-80 156.5t-4.5 195zM448.5 1800.5q-6.5 22.5 30.5 52.5l226 179q31 31 61.5 43t60.5 12h107q45 0 68.5 -15.5t46.5 -39.5l157 -179q31 -31 15.5 -53t-58.5 -22h-137q-37 0 -59.5 11t-53.5 42 l-63 70l-90 -70q-41 -31 -66.5 -42t-62.5 -11h-133q-43 0 -49.5 22.5z" />
<glyph unicode="&#xdc;" horiz-adv-x="1433" d="M27 494l190 1079q12 66 78 65h137q25 0 36 -7t15 -17t3 -25.5t-3 -29.5l-188 -1065q-8 -47 3 -88t37.5 -72t64.5 -48.5t85 -17.5h158q53 0 103.5 19.5t91.5 54.5t68.5 80t37.5 98l184 1039q4 31 19.5 55t62.5 24h136q68 0 55 -65l-187 -1053q-18 -109 -76.5 -203 t-143.5 -164.5t-188.5 -111.5t-209.5 -41h-158q-102 0 -185 38t-139.5 104.5t-81 156.5t-5.5 195zM487 1831l23 129q4 23 24.5 41t49.5 18h133q27 0 42 -18.5t11 -40.5l-22 -129q-4 -23 -26 -40t-48 -17h-133q-29 0 -43.5 17t-10.5 40zM956 1831l23 129q4 23 24.5 41 t47.5 18h133q29 0 44 -18.5t11 -40.5l-22 -129q-4 -23 -26 -40t-50 -17h-133q-27 0 -41.5 17t-10.5 40z" />
<glyph unicode="&#xdd;" horiz-adv-x="1425" d="M117 1554.5q0 8.5 2 20.5q12 63 76 63h180q37 0 53 -30l283 -568q205 248 325.5 390.5t163.5 185.5l-4 -4q25 27 59 26h185q66 0 53 -65q-4 -16 -13.5 -30.5t-19.5 -24.5q-4 -4 -4 -5l-2 -2l-659 -751l-119 -680q-6 -31 -18.5 -55.5t-63.5 -24.5h-139q-47 0 -52.5 24.5 t0.5 55.5l121 684l-403 772q-4 10 -4 18.5zM713 1779.5q-8 18.5 14 47.5l131 180q45 51 121 51h139q37 0 48.5 -17.5t-11.5 -45.5l-174 -178q-35 -33 -63.5 -44.5t-55.5 -11.5h-96q-45 0 -53 18.5z" />
<glyph unicode="&#xde;" horiz-adv-x="1325" d="M-10 66l260 1507q4 25 26.5 45t51.5 20h139q47 0 53 -18t2 -41l-33 -184h484q111 0 181.5 -40t106 -102.5t36.5 -141.5t-25.5 -156.5t-79.5 -147.5t-129 -115q-59 -35 -102 -60.5t-76 -41.5l-590 -297l-37 -213q-6 -31 -19.5 -55.5t-60.5 -24.5h-139q-29 0 -41 20.5 t-8 45.5zM350 600q86 41 181.5 89t181.5 93q43 23 72.5 40.5t45.5 27.5q35 23 63 42t38 32q53 66 49 131q-4 68 -70 67h-469z" />
<glyph unicode="&#xdf;" horiz-adv-x="1441" d="M-70 -197l342 1954q4 25 25.5 45.5t50.5 20.5h158q29 0 45 -20.5t12 -45.5l-22 -119h465q72 0 130 -27.5t96 -74.5t53 -110.5t3 -135.5q-18 -102 -65 -170q-49 -66 -189 -133q164 -31 222.5 -119t29.5 -254l-29 -170q-16 -92 -66 -173t-121 -141t-158 -95t-179 -35h-481 l-35 -197q-4 -25 -26.5 -45t-51.5 -20h-153q-29 0 -44.5 20.5t-11.5 44.5zM299 272h483q72 0 131 52l25 24q31 29 39 59.5t10 36.5q4 16 6 30.5t6 31.5q2 14 5.5 28.5t7.5 28.5q10 55 4 92t-22.5 60.5t-41 33t-53.5 9.5h-262l-277 -137zM412 915q43 20 99 48t116.5 59 t121 62.5t110.5 60.5t86 52.5t48 39.5q14 16 21 53q6 31 -9.5 53.5t-46.5 22.5h-466z" />
<glyph unicode="&#xe0;" horiz-adv-x="1411" d="M-147 66q0 2 30.5 62t81.5 159.5t118 227.5t136.5 264t139 270.5t128 245t99.5 188.5t55 102q16 23 30.5 38t45.5 15h180q31 0 38 -16t15 -37l260 -1495q0 -16 -2 -24q-10 -66 -75 -66h-148q-33 0 -41 15.5t-16 37.5l-90 539l-545 -223l-168 -316q-16 -25 -27.5 -39 t-46.5 -14h-141q-25 0 -43.5 18.5t-13.5 47.5zM481 739l305 125q-10 49 -16 81t-8 48t-4 31.5t-4 32.5q-6 31 -10.5 65.5t-14.5 81.5zM584 1999q-14 29 3 46t54 17h145q78 0 105 -51l65 -180q12 -29 -1 -47.5t-58 -18.5h-102q-27 0 -51.5 11.5t-51.5 44.5z" />
<glyph unicode="&#xe1;" horiz-adv-x="1411" d="M-147 66q0 2 30.5 62t81.5 159.5t118 227.5t136.5 264t139 270.5t128 245t99.5 188.5t55 102q14 23 28.5 38t45.5 15h180q31 0 39 -16t16 -37l260 -1495q0 -16 -2 -24q-12 -66 -78 -66h-147q-33 0 -41 15.5t-14 37.5l-92 539l-543 -223l-168 -316q-16 -25 -28.5 -39 t-47.5 -14h-141q-25 0 -42.5 18.5t-12.5 47.5zM481 739l305 125q-23 100 -24 129q-2 16 -5 31.5t-5 32.5q-4 31 -8.5 65.5t-14.5 81.5zM744.5 1792q-7.5 18 15.5 47l129 180q45 51 123 52h139q37 0 48 -17.5t-13 -46.5l-172 -178q-37 -33 -65.5 -44t-55.5 -11h-96 q-45 0 -52.5 18z" />
<glyph unicode="&#xe2;" horiz-adv-x="1411" d="M-147 66q0 2 30.5 62t81.5 159.5t118 227.5t136.5 264t139 270.5t128 245t99.5 188.5t55 102q14 23 28.5 38t45.5 15h180q31 0 39 -16t16 -37l260 -1495q0 -16 -2 -24q-12 -66 -78 -66h-147q-33 0 -41 15.5t-14 37.5l-92 539l-543 -223l-168 -316q-16 -25 -28.5 -39 t-47.5 -14h-141q-25 0 -42.5 18.5t-12.5 47.5zM446.5 1785.5q-6.5 22.5 32.5 53.5l223 178q31 31 63 43.5t62 12.5h107q45 0 67.5 -15.5t45.5 -40.5l159 -178q29 -31 13.5 -53.5t-58.5 -22.5h-137q-37 0 -59.5 11.5t-51.5 42.5l-63 69l-90 -69q-41 -31 -67.5 -42.5 t-63.5 -11.5h-133q-43 0 -49.5 22.5zM481 739l305 125q-23 100 -24 129q-2 16 -4 31.5t-6 32.5q-4 31 -9.5 65.5t-13.5 81.5z" />
<glyph unicode="&#xe3;" horiz-adv-x="1411" d="M-152 66q0 2 31 62t82 159.5t116.5 227.5t136.5 264t139.5 270.5t127 245t100.5 188.5t56 102q14 23 28.5 38t45.5 15h180q31 0 39 -16t16 -37l260 -1495q0 -10 -1 -14t-1 -10q-12 -66 -78 -66h-147q-33 0 -41 15.5t-14 37.5l-93 539l-542 -223l-168 -316 q-16 -25 -28.5 -39t-47.5 -14h-141q-25 0 -43.5 18.5t-12.5 47.5zM477 739l303 125q-10 49 -15 81t-7 48t-5 31.5t-5 32.5q-4 31 -9.5 65.5t-13.5 81.5zM508 1831q-16 16 10 59l64 111q16 23 40.5 32t53.5 -3q51 -20 92 -22.5t78 4.5t72.5 18.5t74.5 14.5t83 -5t98 -39 q25 -8 30 -29q16 -14 -10 -57l-72 -111q-18 -29 -45.5 -30.5t-46.5 8.5q-37 27 -73.5 32t-75.5 -0.5t-80 -17.5t-84 -18t-89.5 -3.5t-95.5 27.5q-23 10 -24 29z" />
<glyph unicode="&#xe4;" horiz-adv-x="1411" d="M-145 66q0 2 30.5 62t81.5 159.5t118 227.5t136.5 264t139 270.5t128 245t99.5 188.5t55 102q16 23 30.5 38t45.5 15h180q31 0 38 -16t15 -37l260 -1495q0 -16 -2 -24q-10 -66 -75 -66h-148q-33 0 -41 15.5t-16 37.5l-90 539l-545 -223l-168 -316q-16 -25 -27.5 -39 t-48.5 -14h-139q-25 0 -43.5 18.5t-13.5 47.5zM477 1833l25 143q4 25 24.5 44.5t48.5 19.5h134q27 0 42 -19.5t11 -44.5l-25 -143q-4 -25 -26.5 -44.5t-48.5 -19.5h-134q-29 0 -42 19.5t-9 44.5zM483 739l305 125q-10 49 -16 81t-8 48t-4 31.5t-4 32.5q-6 31 -10.5 65.5 t-14.5 81.5zM944 1833l25 143q4 25 24.5 44.5t46.5 19.5h134q29 0 44 -19.5t11 -44.5l-25 -143q-4 -25 -26.5 -44.5t-51.5 -19.5h-133q-27 0 -40 19.5t-9 44.5z" />
<glyph unicode="&#xe5;" horiz-adv-x="1411" d="M-137 66q0 2 41 82.5t106.5 209.5t147.5 287t163.5 315.5t153.5 296t119 226.5l31 57l-23 25q-29 31 -38 74.5t1 91.5q8 47 34 90t61.5 74.5t78.5 50t90 18.5h84q45 0 82 -18.5t61.5 -51t35 -74.5t2.5 -89q-10 -49 -35 -91.5t-60 -74.5q-16 -16 -30 -25l252 -1450 q-2 -10 -2 -14v-10q-12 -66 -78 -66h-148q-33 0 -41 15.5t-14 37.5l-92 539l-543 -223l-168 -316q-16 -25 -28.5 -39t-49.5 -14h-139q-25 0 -43 18.5t-12 47.5zM492 739l303 125l-52 373zM739 1720q-4 -29 13.5 -51t46.5 -22h32q29 0 54.5 22.5t29.5 50.5q6 33 -12 53.5 t-47 20.5h-33q-29 0 -53.5 -20.5t-30.5 -53.5z" />
<glyph unicode="&#xe6;" horiz-adv-x="1994" d="M-103.5 20.5q-17.5 20.5 13.5 65.5q31 43 166 236.5t389 543.5q254 352 381 529.5t133 189.5q16 23 35.5 36t58.5 17h881q51 0 55 -24.5t-2 -54.5l-20 -113q-4 -29 -9.5 -44.5t-15.5 -23.5t-26.5 -10t-43.5 -2h-585l-70 -391h500q29 0 43 -19.5t10 -48.5l-23 -131 q-6 -29 -27.5 -48t-49.5 -19h-500l-78 -437h612q53 0 66.5 -12t3.5 -67l-20 -111q-6 -31 -18.5 -56.5t-63.5 -25.5h-828q-29 0 -46 18.5t-11 47.5l80 458l-457 -141l-223 -320q-29 -41 -44.5 -52t-51.5 -11h-160q-37 0 -54.5 20.5zM621 698l315 103l76 432z" />
<glyph unicode="&#xe7;" horiz-adv-x="1546" d="M126 442.5q-13 94.5 5 198.5l64 356q25 137 98.5 259t180 212.5t236.5 143.5t267 53q125 0 227.5 -41t176 -114.5t114.5 -175t45 -220.5q-2 -2 -4 -10t-2 -10q-10 -20 -27.5 -40t-46.5 -20h-137q-27 0 -38 12.5t-17 32.5q-10 47 -17.5 86t-27.5 74q-41 76 -118 118 t-175 42q-82 0 -160 -32t-142.5 -86t-108.5 -128t-58 -156l-64 -356q-14 -84 4.5 -156.5t62.5 -127t111.5 -86t149.5 -31.5q98 0 189.5 43t164.5 120q39 41 61.5 83t45.5 94l-4 -5q18 55 73 56h138q29 0 43 -20.5t10 -45.5q-4 -31 -18.5 -64.5t-30.5 -62.5 q-41 -74 -94.5 -143.5t-119 -125.5t-140 -98t-156.5 -63l-66 -14l-47 -88q10 -2 19.5 -4t19.5 -6q68 -23 101.5 -80.5t19.5 -143.5q-10 -55 -41 -105t-74 -88t-95 -59.5t-108 -21.5h-98q-59 0 -104 23.5t-76 62.5q-8 14 -15.5 27.5t-11.5 29.5q-8 25 -1 47.5t32 34.5l100 51 q25 12 44.5 1t27.5 -33q8 -16 24.5 -29.5t41.5 -13.5h38q82 0 99 73q4 33 -14.5 56.5t-57.5 23.5h-96q-29 0 -36 19.5t11 48.5l88 162q-49 4 -95 14t-87 31q-84 39 -147.5 100t-103.5 141t-53 174.5z" />
<glyph unicode="&#xe8;" horiz-adv-x="1359" d="M-49 66l258 1507q6 29 29.5 47t52.5 18h989q51 0 55 -24.5t-2 -54.5l-18 -113q-10 -55 -26.5 -67.5t-69.5 -12.5h-768l-66 -362h682q29 0 44 -19.5t11 -48.5l-24 -139q-6 -29 -27.5 -48.5t-50.5 -19.5h-682l-82 -457h795q53 0 66 -12t3 -67l-20 -111q-4 -31 -17.5 -56.5 t-64.5 -25.5h-1014q-29 0 -44 18.5t-9 47.5zM578 2015q-14 29 3 46.5t54 17.5h160q78 0 104 -51l66 -181q12 -29 -2.5 -47t-59.5 -18h-117q-27 0 -51 11t-49 44z" />
<glyph unicode="&#xe9;" horiz-adv-x="1359" d="M-49 66l260 1507q4 29 27.5 47t52.5 18h989q51 0 55 -24.5t-2 -54.5l-18 -113q-10 -55 -26.5 -67.5t-69.5 -12.5h-768l-64 -362h682q29 0 43 -19.5t10 -48.5l-24 -139q-6 -29 -27.5 -48.5t-50.5 -19.5h-682l-80 -457h795q53 0 65 -12t2 -67l-20 -111q-4 -31 -17.5 -56.5 t-64.5 -25.5h-1014q-29 0 -44 18.5t-9 47.5zM697.5 1796.5q-7.5 18.5 15.5 46.5l129 180q45 51 123 52h139q37 0 48 -17.5t-13 -46.5l-172 -178q-37 -33 -66 -44t-55 -11h-96q-45 0 -52.5 18.5z" />
<glyph unicode="&#xea;" horiz-adv-x="1359" d="M-49 66l258 1507q6 29 29.5 47t52.5 18h989q51 0 55 -24.5t-2 -54.5l-20 -113q-4 -29 -9.5 -44.5t-15.5 -23.5t-26.5 -10t-42.5 -2h-768l-66 -362h682q29 0 44 -19.5t11 -48.5l-24 -139q-6 -29 -27.5 -48.5t-50.5 -19.5h-682l-82 -457h795q53 0 66 -12t3 -67l-20 -111 q-6 -31 -18.5 -56.5t-63.5 -25.5h-1014q-29 0 -44 18.5t-9 47.5zM436 1794.5q-6 22.5 33 52.5l223 178q33 31 63.5 43.5t61.5 12.5h107q45 0 67.5 -15.5t44.5 -40.5l160 -178q29 -31 13.5 -53t-58.5 -22h-137q-37 0 -58.5 11t-52.5 42l-63 69l-90 -69q-41 -31 -68 -42 t-64 -11h-133q-43 0 -49 22.5z" />
<glyph unicode="&#xeb;" horiz-adv-x="1359" d="M-45 66l260 1507q4 29 28.5 47t53.5 18h989q25 0 37 -7t17.5 -17t3 -25.5t-4.5 -29.5l-20 -113q-4 -29 -10 -44.5t-16.5 -23.5t-27 -10t-42.5 -2h-768l-64 -362h682q29 0 44.5 -19.5t8.5 -48.5l-24 -139q-4 -29 -26.5 -48.5t-51.5 -19.5h-682l-80 -457h795q53 0 65.5 -12 t1.5 -67l-18 -111q-6 -31 -18.5 -56.5t-63.5 -25.5h-1014q-29 0 -44 18.5t-11 47.5zM465 1829l22 131q4 20 24.5 38.5t49.5 18.5h133q27 0 42.5 -18.5t11.5 -38.5l-23 -131q-4 -20 -25.5 -37.5t-48.5 -17.5h-133q-29 0 -43 17t-10 38zM934 1829l22 131q4 20 24.5 38.5 t47.5 18.5h133q29 0 44.5 -18.5t11.5 -38.5l-23 -131q-4 -20 -25.5 -37.5t-50.5 -17.5h-133q-27 0 -41 17t-10 38z" />
<glyph unicode="&#xec;" d="M-47 66l260 1507q4 25 25.5 45t50.5 20h139q29 0 45 -20.5t12 -44.5l-266 -1507q-4 -25 -27.5 -45.5t-52.5 -20.5h-137q-29 0 -41 20.5t-8 45.5zM147 2007q-16 29 2.5 46.5t47.5 17.5h145q74 0 100 -52l68 -180q10 -29 -3 -47t-58 -18h-103q-27 0 -51.5 11t-46.5 44z" />
<glyph unicode="&#xed;" d="M-47 66l260 1507q4 25 26.5 45t51.5 20h139q29 0 44 -20.5t11 -44.5l-266 -1507q-4 -25 -26.5 -45.5t-51.5 -20.5h-137q-29 0 -42 20.5t-9 45.5zM275.5 1785.5q-7.5 18.5 13.5 47.5l131 180q45 51 121 51h139q37 0 48 -17t-11 -46l-172 -178q-37 -33 -65.5 -44.5 t-55.5 -11.5h-96q-45 0 -52.5 18.5z" />
<glyph unicode="&#xee;" d="M-47 66l260 1507q4 25 25.5 45t50.5 20h139q29 0 45 -20.5t12 -44.5l-266 -1507q-4 -25 -27.5 -45.5t-52.5 -20.5h-137q-29 0 -41 20.5t-8 45.5zM13 1783.5q-5 22.5 30 53.5l213 178q31 31 62.5 43.5t60.5 12.5h106q45 0 67.5 -15.5t45.5 -40.5l160 -178 q29 -31 13.5 -53.5t-58.5 -22.5h-138q-37 0 -59 11.5t-51 42.5l-64 69l-90 -69q-41 -31 -66.5 -42.5t-62.5 -11.5h-123q-41 0 -46 22.5z" />
<glyph unicode="&#xef;" d="M-45 66l260 1507q4 25 26.5 45t51.5 20h139q29 0 44.5 -20.5t10.5 -44.5l-266 -1507q-4 -25 -26.5 -45.5t-51.5 -20.5h-137q-29 0 -42 20.5t-9 45.5zM45 1837l25 143q4 25 24.5 44.5t48.5 19.5h123q27 0 42.5 -19.5t10.5 -44.5l-26 -143q-4 -25 -25.5 -44t-48.5 -19h-123 q-29 0 -42 19t-9 44zM500 1837l24 143q4 25 24.5 44.5t47.5 19.5h133q29 0 44 -19.5t11 -44.5l-24 -143q-4 -25 -26.5 -44t-51.5 -19h-133q-27 0 -40 19t-9 44z" />
<glyph unicode="&#xf0;" horiz-adv-x="1527" d="M-12 66l106 647h-71q-25 0 -33 20.5t-2 44.5l14 109q4 25 19.5 45t44.5 20h71l111 621q4 25 27.5 45t52.5 20h579q135 0 245 -51t182.5 -139t103 -207t6.5 -252l-60 -340q-25 -133 -96 -251.5t-175.5 -207t-231.5 -139.5t-263 -51h-579q-29 0 -43 18.5t-8 47.5zM291 272 h375q78 0 151.5 30t135 82t103.5 119.5t56 145.5l59 340q14 76 -4 144.5t-60 121t-105.5 82t-141.5 29.5h-375l-73 -414h280q29 0 44.5 -20.5t11.5 -44.5l-19 -109q-4 -25 -27.5 -45t-52.5 -20h-280z" />
<glyph unicode="&#xf1;" horiz-adv-x="1499" d="M-51 66l260 1507q4 25 26.5 45t51.5 20h151q37 0 49 -32v2l517 -1057l180 1022q4 25 27.5 45t52.5 20h139q29 0 44 -20.5t11 -44.5l-266 -1507q-4 -25 -26.5 -45.5t-51.5 -20.5h-139q-39 0 -53 31q-68 137 -132.5 267t-128 258t-129 259t-135.5 270l-180 -1019 q-4 -25 -26.5 -45.5t-51.5 -20.5h-139q-29 0 -42 20.5t-9 45.5zM545 1817q-14 14 10 59l66 111q14 23 38.5 32t53.5 -4q49 -20 91 -22t80 5t72.5 18.5t73.5 14.5t83 -5.5t99 -38.5q23 -10 29 -29q18 -16 -10 -57l-70 -111q-20 -29 -47 -31t-45 8q-37 27 -75 32t-76.5 0 t-78.5 -17.5t-83 -18.5t-89.5 -3t-95.5 28q-20 8 -26 29z" />
<glyph unicode="&#xf2;" horiz-adv-x="1628" d="M27 662l55 321q25 141 104.5 265t193.5 215t254 144.5t288 53.5q147 0 268 -53.5t200.5 -144.5t113.5 -215t9 -265l-55 -321q-25 -141 -103.5 -265.5t-192 -216.5t-253 -145t-286.5 -53t-268.5 53t-202 145t-115.5 216t-10 266zM303 662q-16 -86 5.5 -162t71.5 -133.5 t125 -90t165 -32.5t175 32.5t154.5 90t117.5 133t65 162.5l55 321q14 86 -6.5 162t-70.5 133t-123.5 90t-164.5 33q-90 0 -176 -34t-155.5 -90t-118.5 -132t-64 -162zM698 2015q-12 29 5.5 46.5t54.5 17.5h145q76 0 103 -51l67 -181q12 -29 -2 -47t-59 -18h-103 q-27 0 -51 11t-49 44z" />
<glyph unicode="&#xf3;" horiz-adv-x="1628" d="M27 662l55 321q25 141 104.5 265t193.5 215t254 144.5t288 53.5q147 0 268 -53.5t200.5 -144.5t113.5 -215t9 -265l-55 -321q-25 -141 -103.5 -265.5t-192 -216.5t-253 -145t-286.5 -53t-268.5 53t-202 145t-115.5 216t-10 266zM303 662q-16 -86 5.5 -162t71.5 -133.5 t125 -90t165 -32.5t175 32.5t154.5 90t117.5 133t65 162.5l55 321q14 86 -6.5 162t-70.5 133t-123.5 90t-164.5 33q-90 0 -176 -34t-155.5 -90t-118.5 -132t-64 -162zM818 1800.5q-7 18.5 16 46.5l129 181q45 51 122 51h140q37 0 48 -17.5t-13 -46.5l-173 -178 q-37 -33 -65.5 -44t-54.5 -11h-97q-45 0 -52 18.5z" />
<glyph unicode="&#xf4;" horiz-adv-x="1628" d="M27 662l55 321q25 141 104.5 265t193.5 215t254 144.5t288 53.5q147 0 268 -53.5t200.5 -144.5t113.5 -215t9 -265l-55 -321q-25 -141 -103.5 -265.5t-192 -216.5t-253 -145t-286.5 -53t-268.5 53t-202 145t-115.5 216t-10 266zM303 662q-16 -86 5.5 -162t71.5 -133.5 t125 -90t165 -32.5t175 32.5t154.5 90t117.5 133t65 162.5l55 321q14 86 -6.5 162t-70.5 133t-123.5 90t-164.5 33q-90 0 -176 -34t-155.5 -90t-118.5 -132t-64 -162zM551 1792q-6 23 33 53l223 178q33 31 63.5 43.5t61.5 12.5h106q45 0 67.5 -15.5t45.5 -40.5l160 -178 q29 -31 13.5 -53.5t-58.5 -22.5h-138q-37 0 -59 11.5t-51 42.5l-64 69l-90 -69q-41 -31 -67.5 -42.5t-63.5 -11.5h-133q-43 0 -49 23z" />
<glyph unicode="&#xf5;" horiz-adv-x="1628" d="M20 662l58 321q25 141 103.5 265t192 215t254 144.5t287.5 53.5t268.5 -53.5t202 -144.5t114.5 -215t9 -265l-57 -321q-25 -141 -102.5 -265.5t-191.5 -216.5t-253 -145t-287 -53q-147 0 -268 53t-201.5 145t-116.5 216t-12 266zM297 662q-16 -86 5.5 -162t71.5 -133.5 t124.5 -90t165.5 -32.5q90 0 175 32.5t154.5 90t117.5 133t65 162.5l57 321q14 86 -6.5 162t-70.5 133t-124 90t-164 33t-176 -34t-156.5 -90t-118.5 -132t-63 -162zM616 1847q-14 14 11 60l65 110q14 23 39 32t53 -3q51 -20 92.5 -22.5t79 5t72.5 18.5t74 14t83 -5t99 -39 q23 -10 29 -28q18 -16 -10 -58l-70 -110q-18 -29 -46 -31t-46 8q-53 43 -110.5 37t-119 -21.5t-128 -23.5t-140.5 29q-20 8 -27 28z" />
<glyph unicode="&#xf6;" horiz-adv-x="1628" d="M31 662l55 321q25 141 104.5 265t193.5 215t254 144.5t288 53.5q147 0 268 -53.5t201 -144.5t113.5 -215t9.5 -265l-56 -321q-25 -141 -103.5 -265.5t-192 -216.5t-253 -145t-286.5 -53t-268 53t-202 145t-116 216t-10 266zM307 662q-16 -86 5.5 -162t71.5 -133.5 t125 -90t165 -32.5t175 32.5t154.5 90t117.5 133t65 162.5l55 321q14 86 -6.5 162t-70.5 133t-123.5 90t-163.5 33t-176.5 -34t-156 -90t-118.5 -132t-64 -162zM582 1841l24 137q4 23 24.5 41.5t49.5 18.5h135q29 0 44 -18.5t11 -41.5l-24 -137q-4 -25 -25.5 -43t-50.5 -18 h-135q-29 0 -43 18.5t-10 42.5zM1057 1841l24 137q4 23 24.5 41.5t47.5 18.5h135q31 0 46.5 -18.5t11.5 -41.5l-25 -137q-4 -25 -25.5 -43t-52.5 -18h-135q-27 0 -41 18.5t-10 42.5z" />
<glyph unicode="&#xf7;" horiz-adv-x="1007" d="M86 715l23 129q4 25 26.5 45t50.5 20h662q29 0 44 -20.5t11 -44.5l-22 -129q-4 -25 -27 -45.5t-51 -20.5h-662q-29 0 -44 20.5t-11 45.5zM285 352l26 152q4 25 26.5 45t51.5 20h139q29 0 44.5 -20.5t11.5 -44.5l-27 -152q-4 -25 -27.5 -45t-52.5 -20h-139q-29 0 -43 20.5 t-10 44.5zM412 1069l26 152q4 25 26.5 45t51.5 20h139q29 0 44.5 -20.5t11.5 -44.5l-27 -152q-4 -25 -27.5 -45t-52.5 -20h-139q-29 0 -43 20t-10 45z" />
<glyph unicode="&#xf8;" horiz-adv-x="1628" d="M60.5 -142.5q-5.5 25.5 19.5 60.5l151 219q-10 10 -19 20.5t-19 20.5q-84 92 -118 217t-9 267l57 321q27 141 105.5 265t192.5 215t253 144.5t287 53.5q143 0 268 -53l10 -4l82 118q23 25 43 37.5t53 12.5h105q57 0 61 -26t-18 -60l-146 -211l11 -13q80 -98 114.5 -218 t9.5 -261l-57 -321q-25 -141 -102.5 -265.5t-191 -216.5t-253 -145t-286.5 -53q-66 0 -126.5 10t-117.5 28l-96 -139q-23 -25 -43.5 -37t-53.5 -12h-104q-57 0 -62.5 25.5zM342 662q-12 -82 6 -162q18 -63 55 -115l674 983q-68 33 -164 33q-90 0 -176 -34t-155.5 -90 t-118.5 -132t-64 -162zM586 260q66 -16 123 -16q90 0 176 32.5t155.5 90t117.5 133t63 162.5l57 321q8 41 6 81t-12 81q-10 35 -31 72z" />
<glyph unicode="&#xf9;" horiz-adv-x="1433" d="M23 494l190 1079q12 66 78 65h137q25 0 36 -7t15 -17t3 -25.5t-3 -29.5l-188 -1065q-8 -47 3 -88t37.5 -72t64.5 -48.5t85 -17.5h158q53 0 103.5 19.5t92.5 54.5t69.5 80t37.5 98l182 1039q4 31 19.5 55t62.5 24h135q68 0 56 -65l-185 -1053q-18 -109 -77.5 -203 t-144.5 -164.5t-188.5 -111.5t-209.5 -41h-158q-102 0 -185 38t-139.5 104.5t-81 156.5t-5.5 195zM616 1999q-14 29 3.5 46t54.5 17h145q78 0 105 -51l65 -180q12 -29 -1 -47.5t-58 -18.5h-103q-27 0 -51 11.5t-51 44.5z" />
<glyph unicode="&#xfa;" horiz-adv-x="1433" d="M23 494l190 1079q12 66 78 65h137q25 0 36 -7t15 -17t3 -25.5t-3 -29.5l-188 -1065q-8 -47 3 -88t37.5 -72t64.5 -48.5t85 -17.5h158q53 0 103.5 19.5t92.5 54.5t69.5 80t37.5 98l182 1039q4 31 19.5 55t62.5 24h135q68 0 56 -65l-185 -1053q-18 -109 -77.5 -203 t-144.5 -164.5t-188.5 -111.5t-209.5 -41h-158q-102 0 -185 38t-139.5 104.5t-81 156.5t-5.5 195zM727 1783.5q-8 18.5 14 47.5l131 180q45 51 121 51h140q37 0 48 -17t-12 -46l-174 -178q-35 -33 -63.5 -44.5t-54.5 -11.5h-97q-45 0 -53 18.5z" />
<glyph unicode="&#xfb;" horiz-adv-x="1433" d="M23 494l188 1079q12 66 78 65h137q25 0 36 -7t15 -17t3 -25.5t-3 -29.5l-188 -1065q-8 -47 3 -88t37.5 -72t64.5 -48.5t85 -17.5h158q53 0 103.5 19.5t91 54.5t68.5 80t38 98l184 1039q4 31 19.5 55t62.5 24h135q68 0 56 -65l-187 -1053q-18 -109 -76.5 -203 t-143.5 -164.5t-188.5 -111.5t-209.5 -41h-158q-102 0 -185 38t-139.5 104.5t-80 156.5t-4.5 195zM448.5 1800.5q-6.5 22.5 30.5 52.5l226 179q31 31 61.5 43t60.5 12h107q45 0 68.5 -15.5t46.5 -39.5l157 -179q31 -31 15.5 -53t-58.5 -22h-137q-37 0 -59.5 11t-53.5 42 l-63 70l-90 -70q-41 -31 -66.5 -42t-62.5 -11h-133q-43 0 -49.5 22.5z" />
<glyph unicode="&#xfc;" horiz-adv-x="1433" d="M27 494l190 1079q12 66 78 65h137q25 0 36 -7t15 -17t3 -25.5t-3 -29.5l-188 -1065q-8 -47 3 -88t37.5 -72t64.5 -48.5t85 -17.5h158q53 0 103.5 19.5t91.5 54.5t68.5 80t37.5 98l184 1039q4 31 19.5 55t62.5 24h136q68 0 55 -65l-187 -1053q-18 -109 -76.5 -203 t-143.5 -164.5t-188.5 -111.5t-209.5 -41h-158q-102 0 -185 38t-139.5 104.5t-81 156.5t-5.5 195zM487 1831l23 129q4 23 24.5 41t49.5 18h133q27 0 42 -18.5t11 -40.5l-22 -129q-4 -23 -26 -40t-48 -17h-133q-29 0 -43.5 17t-10.5 40zM956 1831l23 129q4 23 24.5 41 t47.5 18h133q29 0 44 -18.5t11 -40.5l-22 -129q-4 -23 -26 -40t-50 -17h-133q-27 0 -41.5 17t-10.5 40z" />
<glyph unicode="&#xfd;" horiz-adv-x="1425" d="M117 1554.5q0 8.5 2 20.5q12 63 76 63h180q37 0 53 -30l283 -568q205 248 325.5 390.5t163.5 185.5l-4 -4q25 27 59 26h185q66 0 53 -65q-4 -16 -13.5 -30.5t-19.5 -24.5q-4 -4 -4 -5l-2 -2l-659 -751l-119 -680q-6 -31 -18.5 -55.5t-63.5 -24.5h-139q-47 0 -52.5 24.5 t0.5 55.5l121 684l-403 772q-4 10 -4 18.5zM713 1779.5q-8 18.5 14 47.5l131 180q45 51 121 51h139q37 0 48.5 -17.5t-11.5 -45.5l-174 -178q-35 -33 -63.5 -44.5t-55.5 -11.5h-96q-45 0 -53 18.5z" />
<glyph unicode="&#xfe;" horiz-adv-x="1325" d="M-10 66l260 1507q4 25 26.5 45t51.5 20h139q47 0 53 -18t2 -41l-33 -184h484q111 0 181.5 -40t106 -102.5t36.5 -141.5t-25.5 -156.5t-79.5 -147.5t-129 -115q-59 -35 -102 -60.5t-76 -41.5l-590 -297l-37 -213q-6 -31 -19.5 -55.5t-60.5 -24.5h-139q-29 0 -41 20.5 t-8 45.5zM350 600q86 41 181.5 89t181.5 93q43 23 72.5 40.5t45.5 27.5q35 23 63 42t38 32q53 66 49 131q-4 68 -70 67h-469z" />
<glyph unicode="&#xff;" horiz-adv-x="1425" d="M119 1554.5q0 8.5 4 20.5q8 63 74 63h180q37 0 53 -30l285 -568q205 248 324.5 390.5t162.5 185.5l-4 -4q25 27 59 26h185q66 0 53 -65q-4 -16 -13 -30.5t-20 -24.5q-4 -4 -4 -5l-2 -2l-659 -751l-119 -680q-6 -31 -18.5 -55.5t-63.5 -24.5h-139q-47 0 -52.5 24.5 t1.5 55.5l120 684l-403 772q-4 10 -4 18.5zM487 1827l27 143q4 25 24.5 44.5t49.5 19.5h133q27 0 42 -19.5t11 -44.5l-26 -143q-4 -25 -26 -44.5t-48 -19.5h-133q-29 0 -43.5 19.5t-10.5 44.5zM954 1827l27 143q4 25 24.5 44.5t47.5 19.5h133q29 0 44 -19.5t11 -44.5 l-27 -143q-4 -25 -25.5 -44.5t-49.5 -19.5h-133q-27 0 -41.5 19.5t-10.5 44.5z" />
<glyph unicode="&#x152;" horiz-adv-x="2019" d="M63 662l58 321q25 141 102.5 265t190.5 206q115 86 254 135t286 49h1024q51 0 55.5 -24.5t-1.5 -54.5l-19 -107q-4 -29 -10 -44t-16.5 -23.5t-26.5 -10.5t-43 -2h-606l-66 -368h520q29 0 44.5 -19.5t11.5 -48.5l-25 -139q-6 -29 -27.5 -48.5t-50.5 -19.5h-520l-82 -463 h633q53 0 65.5 -12t2.5 -68l-19 -104q-6 -31 -18.5 -56.5t-63.5 -25.5h-1052q-264 0 -416 119q-158 123 -182 260q-27 135 -3 283zM340 662q-25 -137 34.5 -227.5t170.5 -133.5q39 -16 76.5 -27.5t80.5 -11.5h152l199 1129h-150q-86 0 -172 -33q-129 -47 -220 -142.5 t-114 -232.5z" />
<glyph unicode="&#x153;" horiz-adv-x="2019" d="M63 662l58 321q25 141 102.5 265t190.5 206q115 86 254 135t286 49h1024q51 0 55.5 -24.5t-1.5 -54.5l-19 -107q-4 -29 -10 -44t-16.5 -23.5t-26.5 -10.5t-43 -2h-606l-66 -368h520q29 0 44.5 -19.5t11.5 -48.5l-25 -139q-6 -29 -27.5 -48.5t-50.5 -19.5h-520l-82 -463 h633q53 0 65.5 -12t2.5 -68l-19 -104q-6 -31 -18.5 -56.5t-63.5 -25.5h-1052q-264 0 -416 119q-158 123 -182 260q-27 135 -3 283zM340 662q-25 -137 34.5 -227.5t170.5 -133.5q39 -16 76.5 -27.5t80.5 -11.5h152l199 1129h-150q-86 0 -172 -33q-129 -47 -220 -142.5 t-114 -232.5z" />
<glyph unicode="&#x178;" horiz-adv-x="1425" d="M119 1554.5q0 8.5 4 20.5q8 63 74 63h180q37 0 53 -30l285 -568q205 248 324.5 390.5t162.5 185.5l-4 -4q25 27 59 26h185q66 0 53 -65q-4 -16 -13 -30.5t-20 -24.5q-4 -4 -4 -5l-2 -2l-659 -751l-119 -680q-6 -31 -18.5 -55.5t-63.5 -24.5h-139q-47 0 -52.5 24.5 t1.5 55.5l120 684l-403 772q-4 10 -4 18.5zM487 1827l27 143q4 25 24.5 44.5t49.5 19.5h133q27 0 42 -19.5t11 -44.5l-26 -143q-4 -25 -26 -44.5t-48 -19.5h-133q-29 0 -43.5 19.5t-10.5 44.5zM954 1827l27 143q4 25 24.5 44.5t47.5 19.5h133q29 0 44 -19.5t11 -44.5 l-27 -143q-4 -25 -25.5 -44.5t-49.5 -19.5h-133q-27 0 -41.5 19.5t-10.5 44.5z" />
<glyph unicode="&#x2c6;" horiz-adv-x="854" d="M3 1354.5q-5 23.5 30 52.5l223 178q33 31 63.5 43t61.5 12h106q45 0 68 -15t45 -40l160 -178q29 -31 13.5 -53.5t-58.5 -22.5h-137q-37 0 -59.5 11.5t-51.5 41.5l-64 70l-90 -70q-41 -31 -67.5 -42t-63.5 -11h-133q-41 0 -46 23.5z" />
<glyph unicode="&#x2dc;" horiz-adv-x="811" d="M41 1421q-14 14 10 60l66 110q16 23 39.5 32t52.5 -3q49 -20 91 -22.5t80 5t73.5 18.5t74.5 14t83 -5t98 -39q25 -10 30 -28q16 -14 -10 -58l-72 -110q-18 -29 -45.5 -31t-46.5 8q-53 43 -110.5 37t-119 -21.5t-127.5 -23.5t-140 29q-20 8 -27 28z" />
<glyph unicode="&#x2000;" horiz-adv-x="1043" />
<glyph unicode="&#x2001;" horiz-adv-x="2087" />
<glyph unicode="&#x2002;" horiz-adv-x="1043" />
<glyph unicode="&#x2003;" horiz-adv-x="2087" />
<glyph unicode="&#x2004;" horiz-adv-x="695" />
<glyph unicode="&#x2005;" horiz-adv-x="521" />
<glyph unicode="&#x2006;" horiz-adv-x="347" />
<glyph unicode="&#x2007;" horiz-adv-x="347" />
<glyph unicode="&#x2008;" horiz-adv-x="260" />
<glyph unicode="&#x2009;" horiz-adv-x="417" />
<glyph unicode="&#x200a;" horiz-adv-x="115" />
<glyph unicode="&#x2010;" horiz-adv-x="1007" d="M76 715l22 129q4 25 26.5 45t51.5 20h662q29 0 44 -20.5t11 -44.5l-23 -129q-4 -25 -27.5 -45.5t-51.5 -20.5h-662q-29 0 -43 20.5t-10 45.5z" />
<glyph unicode="&#x2011;" horiz-adv-x="1007" d="M76 715l22 129q4 25 26.5 45t51.5 20h662q29 0 44 -20.5t11 -44.5l-23 -129q-4 -25 -27.5 -45.5t-51.5 -20.5h-662q-29 0 -43 20.5t-10 45.5z" />
<glyph unicode="&#x2012;" horiz-adv-x="1007" d="M76 715l22 129q4 25 26.5 45t51.5 20h662q29 0 44 -20.5t11 -44.5l-23 -129q-4 -25 -27.5 -45.5t-51.5 -20.5h-662q-29 0 -43 20.5t-10 45.5z" />
<glyph unicode="&#x2013;" horiz-adv-x="1212" d="M76 715l28 129q5 25 33 45t64 20h828q36 0 55 -20.5t14 -44.5l-29 -129q-5 -25 -34.5 -45.5t-64.5 -20.5h-828q-36 0 -53.5 20.5t-12.5 45.5z" />
<glyph unicode="&#x2014;" horiz-adv-x="2236" d="M77 715l55 129q10 25 66.5 45t128.5 20h1656q73 0 110.5 -20.5t27.5 -44.5l-58 -129q-10 -25 -68.5 -45.5t-128.5 -20.5h-1656q-73 0 -108 20.5t-25 45.5z" />
<glyph unicode="&#x2018;" horiz-adv-x="462" d="M61 1130l80 451q4 29 29 47.5t49 18.5h125q25 0 41 -18.5t12 -47.5l-80 -451q-4 -29 -28.5 -48t-48.5 -19h-125q-25 0 -41.5 19.5t-12.5 47.5z" />
<glyph unicode="&#x2019;" horiz-adv-x="462" d="M61 1130l80 451q4 29 29 47.5t49 18.5h125q25 0 41 -18.5t12 -47.5l-80 -451q-4 -29 -28.5 -48t-48.5 -19h-125q-25 0 -41.5 19.5t-12.5 47.5z" />
<glyph unicode="&#x201a;" horiz-adv-x="462" d="M61 -35l80 447q4 29 28 47t48 18h125q25 0 42 -18.5t13 -46.5l-80 -447q-4 -29 -27.5 -48t-47.5 -19h-125q-25 0 -42.5 19.5t-13.5 47.5z" />
<glyph unicode="&#x201c;" horiz-adv-x="862" d="M61 1130l80 451q4 29 29 47.5t49 18.5h125q25 0 41 -18.5t12 -47.5l-80 -451q-4 -29 -28.5 -48t-48.5 -19h-125q-25 0 -41.5 19.5t-12.5 47.5zM463 1130l80 451q4 29 28.5 47.5t49.5 18.5h124q25 0 41.5 -18.5t12.5 -47.5l-80 -451q-4 -29 -28.5 -48t-49.5 -19h-125 q-25 0 -41 19.5t-12 47.5z" />
<glyph unicode="&#x201d;" horiz-adv-x="862" d="M61 1130l80 451q4 29 29 47.5t49 18.5h125q25 0 41 -18.5t12 -47.5l-80 -451q-4 -29 -28.5 -48t-48.5 -19h-125q-25 0 -41.5 19.5t-12.5 47.5zM463 1130l80 451q4 29 28.5 47.5t49.5 18.5h124q25 0 41.5 -18.5t12.5 -47.5l-80 -451q-4 -29 -28.5 -48t-49.5 -19h-125 q-25 0 -41 19.5t-12 47.5z" />
<glyph unicode="&#x201e;" horiz-adv-x="862" d="M61 -33l80 447q4 29 28 47t48 18h125q25 0 42 -18.5t13 -46.5l-80 -447q-4 -29 -27.5 -48t-47.5 -19h-125q-25 0 -42.5 19.5t-13.5 47.5zM463 -33l80 447q4 29 27.5 47t47.5 18h125q25 0 42.5 -18.5t13.5 -46.5l-80 -447q-4 -29 -27.5 -48t-48.5 -19h-125q-25 0 -42 19.5 t-13 47.5z" />
<glyph unicode="&#x2022;" horiz-adv-x="727" d="M123 718q-10 44 0 93q8 49 33.5 93t62.5 77t84 52.5t96 19.5q51 0 93.5 -19.5t71 -52.5t40.5 -77t4 -93q-10 -49 -37.5 -93t-67.5 -77t-88.5 -52.5t-99.5 -19.5q-49 0 -90 19.5t-66.5 52.5t-35.5 77z" />
<glyph unicode="&#x2026;" horiz-adv-x="1435" d="M111 66l26 151q4 25 26.5 45.5t51.5 20.5h139q29 0 44.5 -20.5t11.5 -45.5l-27 -151q-4 -25 -27.5 -45.5t-52.5 -20.5h-139q-29 0 -43.5 20.5t-9.5 45.5zM561 66l27 151q4 25 26.5 45.5t51.5 20.5h139q29 0 44 -20.5t11 -45.5l-26 -151q-4 -25 -28 -45.5t-52 -20.5h-140 q-29 0 -43 20.5t-10 45.5zM1012 66l26 151q4 25 26.5 45.5t51.5 20.5h139q29 0 44.5 -20.5t11.5 -45.5l-27 -151q-4 -25 -27.5 -45.5t-52.5 -20.5h-139q-29 0 -43 20.5t-10 45.5z" />
<glyph unicode="&#x202f;" horiz-adv-x="417" />
<glyph unicode="&#x2039;" horiz-adv-x="1007" d="M150 733q2 10 5 19.5t20.5 26t52 46t98 83t161 135t238.5 202.5q20 16 43 17q27 0 39 -17l88 -104q12 -23 8 -41q-4 -25 -22 -41l-383 -326l252 -307q12 -16 10 -41q-6 -25 -25 -41l-123 -104q-20 -16 -43 -17q-27 0 -39 17q-141 172 -220 263t-115.5 136t-43 60.5 t-1.5 33.5z" />
<glyph unicode="&#x203a;" horiz-adv-x="1007" d="M106 385q4 25 23 41l363 307l-269 326q-12 16 -10 41q6 18 25 41l124 104q20 16 44 17q26 -1 38 -17q98 -121 166 -202.5t113 -135t69.5 -83t36 -46t12.5 -26t-1 -19.5q-2 -12 -7.5 -22.5t-21.5 -26.5t-50 -45t-95.5 -79t-154.5 -128t-228 -192q-20 -16 -43 -17 q-27 0 -39 17l-86 104q-14 16 -9 41z" />
<glyph unicode="&#x205f;" horiz-adv-x="521" />
<glyph unicode="&#x20ac;" horiz-adv-x="1546" d="M-31 530l25 129q4 25 22.5 45.5t46.5 20.5h107l35 190h-107q-29 0 -43 20.5t-10 45.5l23 129q4 25 25.5 45.5t49.5 20.5h131q47 104 124 194t173.5 155.5t205.5 102.5t224 37q125 0 227.5 -41t176.5 -114.5t115 -175t45 -220.5q0 -2 -3 -10t-3 -10q-10 -20 -28 -40 t-46 -20h-137q-27 0 -38.5 12.5t-17.5 32.5q-10 47 -17 86t-28 74q-41 76 -117.5 118t-175.5 42q-117 0 -224 -62.5t-173 -160.5h473q29 0 44.5 -20.5t10.5 -45.5l-22 -129q-4 -25 -26.5 -45.5t-51.5 -20.5h-514l-35 -190h514q29 0 45.5 -20.5t12.5 -45.5l-25 -129 q-4 -25 -26.5 -45t-51.5 -20h-473q31 -100 115 -162.5t203 -62.5q98 0 190 43t166 120q37 41 59.5 83t44.5 94l-4 -5q20 55 74 56h137q29 0 43.5 -20.5t9.5 -45.5q-4 -31 -17 -64.5t-30 -62.5q-53 -98 -132 -182t-175 -146.5t-201.5 -97.5t-209.5 -35q-115 0 -212.5 37 t-171 101.5t-119.5 153.5t-55 196h-129q-25 0 -39 20.5t-10 44.5z" />
<glyph unicode="&#x2122;" horiz-adv-x="1609" d="M127 1491l18 102q6 39 43 39h576h6h102q2 0 13.5 -3t15.5 -13l191 -297l297 297q8 10 19 13t13 3h103q39 0 32 -39l-133 -749q-6 -39 -45 -39h-106q-39 0 -33 39l82 467l-201 -201q-8 -12 -17 -15t-20 -3h-63q-8 0 -17.5 3t-13.5 15l-131 201l-82 -467q-6 -39 -45 -39 h-106q-39 0 -33 39l108 610h-149l-109 -610q-6 -39 -47 -39h-104q-37 0 -31 39l109 610h-211q-37 0 -31 37z" />
<glyph unicode="&#x25fc;" horiz-adv-x="1638" d="M0 0v1638h1638v-1638h-1638z" />
</font>
</defs>
</svg>
